<?xml version="1.0" encoding="UTF-8"?>
<svg width="42px" height="42px" viewBox="0 0 42 42" version="1.1" xmlns="http://www.w3.org/2000/svg" xmlns:xlink="http://www.w3.org/1999/xlink">
    <!-- Generator: Sketch 51.3 (57544) - http://www.bohemiancoding.com/sketch -->
    <title>我的页面-账户信息</title>
    <desc>Created with Sketch.</desc>
    <defs></defs>
    <g id="Page-1" stroke="none" stroke-width="1" fill="none" fill-rule="evenodd">
        <g id="切图" transform="translate(-1579.000000, -66.000000)">
            <g id="我的页面-账户信息" transform="translate(1578.000000, 65.000000)">
                <g id="shape" transform="translate(1.000000, 1.000000)" stroke="#FFFFFF" stroke-width="2">
                    <path d="M40.5673985,14.6456972 C40.5668751,14.6446997 40.5663405,14.6436164 40.5657967,14.6424407 L36.3917594,7.44618996 C36.3569165,7.4428264 36.3045938,7.44874105 36.2274139,7.47308094 L30.3371607,9.79424515 L29.8859882,9.43865929 C29.0675798,8.79364103 28.2852425,8.35800736 26.5119186,7.47904275 L26.4211572,7.43978535 L25.955165,7.2102442 L24.9853623,1 L16.5799069,1 C16.601061,1 16.5423861,1.02291973 16.4873429,1.06132471 L15.5490936,7.30059703 L14.9638172,7.49279627 C14.4655099,7.65643567 13.96888,7.90650483 13.3620199,8.28696204 C13.0065256,8.50983121 11.706176,9.39234437 11.5243711,9.51075926 L11.558842,9.48911056 L11.1180234,9.77863189 L10.6301355,9.57835964 L5.55630959,7.49279627 C5.38767268,7.4374175 5.32418349,7.44217577 5.16246596,7.5893793 L1.04796699,14.6829829 C1.08114747,14.7446288 1.12600327,14.8094167 1.17702508,14.8665172 L6.01137984,18.4952176 L6.01137984,18.9949749 C6.01137984,19.3272826 5.98975692,19.5012513 5.89228917,20.1253973 C5.82378251,20.5640877 5.79714786,20.8133649 5.79714786,21.1055276 C5.79714786,22.1551724 5.82385893,22.4972674 5.96006314,22.8998526 L5.95862774,22.8955786 L6.18354699,23.5603308 L1.16169458,27.5653581 C1.16221797,27.5663556 1.16275258,27.5674389 1.16329636,27.5686146 L5.33733369,34.7648653 C5.37217653,34.7682289 5.42449926,34.7623142 5.50167914,34.7379743 L11.3919324,32.4168101 L11.8431048,32.772396 C12.6615133,33.4174142 13.4438506,33.8530479 15.3079359,34.7712699 L15.7739281,35.0008111 L16.7110043,41.0014871 L16.722979,41.1557789 C16.722979,41.0147561 16.7055043,41 16.7941389,41 L25.3634182,41 C25.3422095,41 25.4012422,40.9769619 25.456408,40.9383778 L26.383629,35.0008111 L26.8442924,34.7739145 L26.8496212,34.7712699 C28.7137065,33.8530479 29.4960437,33.4174142 30.3144522,32.772396 L30.7656247,32.4168101 L31.3000783,32.6274216 L36.7311341,34.7712699 C36.6701029,34.7412068 36.7174205,34.7256682 36.709621,34.744494 L40.9675541,27.4067222 C40.9753674,27.3913273 40.9820463,27.3731343 40.9872868,27.3544826 L35.7177132,23.7430499 L35.7177132,23.2160804 C35.7177132,22.8837726 35.7393362,22.709804 35.8368039,22.085658 C35.9053106,21.6469676 35.9319452,21.3976904 35.9319452,21.1055276 C35.9319452,20.0558829 35.9052341,19.7137879 35.8856629,19.5496751 L35.7704653,19.3154767 L35.5455461,18.6507245 L40.5673985,14.6456972 Z M16.4784077,1.06772709 C16.4782428,1.06784859 16.4780779,1.06797022 16.4779131,1.06809199 C16.4776029,1.0683212 16.4780622,1.06744724 16.4790696,1.06521638 Z M0.98286696,14.7952186 L0.908125677,14.9240763 C0.942149885,14.8772392 0.966267614,14.8342006 0.98286696,14.7952186 Z M1.00817853,14.5975935 C1.00705518,14.5932599 1.00582474,14.5891535 1.00451315,14.5852771 C1.00844794,14.5969064 1.01304491,14.6089467 1.01825154,14.6212947 Z"></path>
                    <circle cx="21" cy="21" r="7"></circle>
                </g>
                <rect id="bounds" x="0" y="0" width="44" height="44"></rect>
            </g>
        </g>
    </g>
</svg>