<?xml version="1.0" encoding="UTF-8"?>
<svg width="42px" height="42px" viewBox="0 0 42 42" version="1.1" xmlns="http://www.w3.org/2000/svg" xmlns:xlink="http://www.w3.org/1999/xlink">
    <!-- Generator: Sketch 51.3 (57544) - http://www.bohemiancoding.com/sketch -->
    <title>返回顶层</title>
    <desc>Created with Sketch.</desc>
    <defs></defs>
    <g id="Page-1" stroke="none" stroke-width="1" fill="none" fill-rule="evenodd">
        <g id="切图" transform="translate(-1388.000000, -137.000000)">
            <g id="返回顶层" transform="translate(1388.000000, 137.000000)">
                <path d="M21,1 C9.95505942,1 1,9.95505942 1,21 C1,32.0449406 9.95505942,41 21,41 C32.0449406,41 41,32.0449406 41,21 C41,9.95505942 32.0449406,1 21,1 Z" id="Shape" stroke="#9B9B9B" stroke-width="2" fill="#FFFFFF" fill-rule="nonzero" opacity="0.5"></path>
                <path d="M28.750951,12 C29.3929291,12 29.9201164,12.5271873 29.9201164,13.1734169 C29.9201164,13.8196465 29.3929291,14.3468337 28.7466995,14.3468337 L13.1734169,14.3468337 C12.5271873,14.3468337 12,13.8196465 12,13.1734169 C12,12.5271873 12.5271873,12 13.1734169,12 L28.750951,12 Z M22.0822891,16.3358693 L29.1653054,23.4146341 C29.6202171,23.8737973 29.6202171,24.6178116 29.1653054,25.0727232 C28.7061423,25.5276348 27.962128,25.5276348 27.5072164,25.0727232 L22.4266614,19.9921683 L22.4266614,32.7466995 C22.4266614,33.3929291 21.8994742,33.9201164 21.2532446,33.9201164 C20.607015,33.9201164 20.0798277,33.3929291 20.0798277,32.7466995 L20.0798277,19.9964198 L14.9992728,25.0769747 C14.5401096,25.5318863 13.7960953,25.5318863 13.3411837,25.0769747 C12.8862721,24.6178116 12.8862721,23.8737973 13.3411837,23.4188857 L20.415697,16.3358693 C20.598512,16.1530544 20.8280935,16.0467666 21.0661781,16.008503 L21.0704296,16.008503 C21.0831842,16.008503 21.1001902,16.0042515 21.1171962,16.0042515 L21.1299508,16.0042515 C21.1427053,16 21.1597113,16 21.1724659,16 L21.3255203,16 C21.3382748,16 21.3552808,16.0042515 21.3680354,16.0042515 L21.3807899,16.0042515 C21.3935444,16.0042515 21.4105505,16.0042515 21.4275565,16.008503 L21.431808,16.008503 C21.6698926,16.0425151 21.8994742,16.1530544 22.0822891,16.3358693 Z" id="Combined-Shape" fill="#9B9B9B"></path>
            </g>
        </g>
    </g>
</svg>