<?xml version="1.0" encoding="UTF-8"?>
<svg width="18px" height="34px" viewBox="0 0 18 34" version="1.1" xmlns="http://www.w3.org/2000/svg" xmlns:xlink="http://www.w3.org/1999/xlink">
    <!-- Generator: Sketch 51.3 (57544) - http://www.bohemiancoding.com/sketch -->
    <title>返回</title>
    <desc>Created with Sketch.</desc>
    <defs></defs>
    <g id="Page-1" stroke="none" stroke-width="1" fill="none" fill-rule="evenodd">
        <g id="3-1-App-Center" transform="translate(-40.000000, -162.000000)" fill="#FFFFFF" fill-rule="nonzero">
            <path d="M57.4843094,162.538099 C56.8041541,161.82611 55.6953762,161.819872 55.0077904,162.524169 C55.0032817,162.528787 54.9987972,162.533431 54.9943372,162.538099 L40.5196559,177.724844 L40.5196561,177.724843 C39.8320702,178.429138 39.8260462,179.577268 40.5062026,180.289258 C40.5106626,180.293926 40.515147,180.29857 40.5196558,180.303188 L54.9943371,195.461599 C55.6819229,196.173588 56.7967248,196.173588 57.4843106,195.461599 C58.1718965,194.74961 58.1718965,193.595242 57.4843106,192.883253 C57.4843106,192.883253 57.4843106,192.883253 57.4843106,192.883253 L44.3230219,178.999848 L57.4843106,165.088111 C58.1589464,164.381638 58.1589464,163.244571 57.4843107,162.538098 L57.4843094,162.538099 Z" id="返回"></path>
        </g>
    </g>
</svg>