<?xml version="1.0" encoding="UTF-8"?>
<svg width="26px" height="26px" viewBox="0 0 26 26" version="1.1" xmlns="http://www.w3.org/2000/svg" xmlns:xlink="http://www.w3.org/1999/xlink">
    <!-- Generator: Sketch 51.3 (57544) - http://www.bohemiancoding.com/sketch -->
    <title>菜单关闭</title>
    <desc>Created with Sketch.</desc>
    <defs></defs>
    <g id="Page-1" stroke="none" stroke-width="1" fill="none" fill-rule="evenodd">
        <g id="切图" transform="translate(-269.000000, -160.000000)">
            <g id="菜单关闭" transform="translate(257.000000, 148.000000)">
                <rect id="Bounds" x="5" y="5" width="40" height="40"></rect>
                <path d="M25,22.1715729 L34.1923882,12.9791847 C34.9734367,12.1981361 36.2397667,12.1981361 37.0208153,12.9791847 C37.8018639,13.7602333 37.8018639,15.0265633 37.0208153,15.8076118 L27.8284271,25 L37.0208153,34.1923882 C37.8018639,34.9734367 37.8018639,36.2397667 37.0208153,37.0208153 C36.2397667,37.8018639 34.9734367,37.8018639 34.1923882,37.0208153 L25,27.8284271 L15.8076118,37.0208153 C15.0265633,37.8018639 13.7602333,37.8018639 12.9791847,37.0208153 C12.1981361,36.2397667 12.1981361,34.9734367 12.9791847,34.1923882 L22.1715729,25 L12.9791847,15.8076118 C12.1981361,15.0265633 12.1981361,13.7602333 12.9791847,12.9791847 C13.7602333,12.1981361 15.0265633,12.1981361 15.8076118,12.9791847 L25,22.1715729 Z" id="Combined-Shape" fill="#9B9B9B"></path>
            </g>
        </g>
    </g>
</svg>