<?xml version="1.0" encoding="UTF-8"?>
<svg width="26px" height="26px" viewBox="0 0 26 26" version="1.1" xmlns="http://www.w3.org/2000/svg" xmlns:xlink="http://www.w3.org/1999/xlink">
    <!-- Generator: Sketch 51.3 (57544) - http://www.bohemiancoding.com/sketch -->
    <title>已收藏</title>
    <desc>Created with Sketch.</desc>
    <defs></defs>
    <g id="Page-1" stroke="none" stroke-width="1" fill="none" fill-rule="evenodd">
        <g id="切图" transform="translate(-863.000000, -169.000000)" fill="#FFFFFF" fill-rule="nonzero" stroke="#FFFFFF" stroke-width="2">
            <path d="M882.993743,194 C883.165511,194 883.310382,193.946507 883.456656,193.821428 C883.756379,193.587508 883.906095,193.214952 883.837496,192.834228 L882.525874,185.484845 L882.903218,185.115052 L887.710427,180.404663 C887.975813,180.128499 888.068309,179.729742 887.931532,179.29702 C887.846474,178.965097 887.570411,178.716127 887.221184,178.666778 L880.012477,177.355337 L879.792832,176.891067 L876.772003,170.502766 C876.652485,170.212564 876.326931,170 876.009087,170 C875.702405,170 875.389398,170.208459 875.225462,170.549603 L872.007594,177.351326 L871.507301,177.445983 L864.746992,178.723353 C864.416099,178.766395 864.150457,179.005967 864.035378,179.362327 C863.936266,179.723308 864.048821,180.184003 864.282928,180.428509 L869.495946,185.484551 L869.398287,186.011496 L868.131382,192.847277 C868.066166,193.186599 868.22862,193.598202 868.51464,193.821428 C868.752667,194.007198 869.113574,194.032659 869.409429,193.867551 L876.01085,190.459023 L882.564647,193.868991 C882.723612,193.951701 882.896007,194 882.993743,194 Z" id="已收藏"></path>
        </g>
    </g>
</svg>