<?xml version="1.0" encoding="UTF-8"?>
<svg width="16px" height="16px" viewBox="0 0 16 16" version="1.1" xmlns="http://www.w3.org/2000/svg" xmlns:xlink="http://www.w3.org/1999/xlink">
    <!-- Generator: Sketch 49.3 (51167) - http://www.bohemiancoding.com/sketch -->
    <title>已收藏紫色</title>
    <desc>Created with Sketch.</desc>
    <defs></defs>
    <g id="Page-1" stroke="none" stroke-width="1" fill="none" fill-rule="evenodd">
        <g id="App-Center-App-Center2" transform="translate(-1035.000000, -258.000000)" fill="#9013FE" fill-rule="nonzero">
            <path d="M1047.30384,274 C1047.13076,274 1046.92883,273.939962 1046.75574,273.849906 L1043.00559,271.898687 L1039.22659,273.849906 C1038.85158,274.060038 1038.36117,274.030019 1038.01501,273.75985 C1037.66884,273.489681 1037.46691,273.009381 1037.55345,272.559099 L1038.33233,268.356473 L1035.36105,265.474672 C1035.04373,265.144465 1034.92834,264.634146 1035.04373,264.213884 C1035.18797,263.763602 1035.53414,263.433396 1035.99569,263.373358 L1040.12086,262.592871 L1041.96709,258.690432 C1042.16902,258.270169 1042.57288,258 1043.00559,258 C1043.4383,258 1043.87101,258.270169 1044.0441,258.690432 L1045.89032,262.592871 L1050.01549,263.34334 C1050.4482,263.403377 1050.82321,263.733583 1050.9386,264.183865 C1051.08284,264.634146 1050.96745,265.114447 1050.65013,265.444653 L1047.67886,268.356473 L1048.42889,272.559099 C1048.51543,273.0394 1048.3135,273.489681 1047.96733,273.75985 C1047.79425,273.909944 1047.56347,274 1047.30384,274 Z" id="已收藏紫色"></path>
        </g>
    </g>
</svg>