<?xml version="1.0" encoding="UTF-8"?>
<svg width="24px" height="24px" viewBox="0 0 24 24" version="1.1" xmlns="http://www.w3.org/2000/svg" xmlns:xlink="http://www.w3.org/1999/xlink">
    <!-- Generator: Sketch 51.3 (57544) - http://www.bohemiancoding.com/sketch -->
    <title>收藏次数</title>
    <desc>Created with Sketch.</desc>
    <defs></defs>
    <g id="Page-1" stroke="none" stroke-width="1" fill="none" fill-rule="evenodd">
        <g id="切图" transform="translate(-875.000000, -40.000000)" fill-rule="nonzero" stroke="#BBBBBB" stroke-width="2.25">
            <path d="M893.455763,62.875 C893.565963,62.875 893.652663,62.8429862 893.758833,62.7529061 C893.97742,62.5823082 894.085672,62.3129322 894.03583,62.0363016 L892.806358,55.1472331 L893.23087,54.7312159 L897.664031,50.3874691 C897.85761,50.1860295 897.925044,49.8953127 897.81812,49.5550663 C897.759853,49.3276936 897.571051,49.1574209 897.321874,49.1218423 L890.565649,47.892719 L890.318549,47.3704143 L887.52591,41.464064 C887.447102,41.2727113 887.220874,41.125 887.008388,41.125 C886.805057,41.125 886.585599,41.271157 886.467569,41.5167558 L883.453261,47.8882066 L882.890432,47.9946948 L876.638654,49.1756392 C876.414019,49.2048588 876.231256,49.3696863 876.150451,49.6186874 C876.077618,49.883955 876.16353,50.2355985 876.324823,50.4044465 L881.21452,55.1469026 L881.104653,55.7397157 L879.934954,62.0509827 C879.889318,62.2884264 880.009416,62.5927133 880.214672,62.7529061 C880.369923,62.8740732 880.615162,62.8913748 880.823756,62.7752439 L887.010371,59.5808939 L893.152875,62.7768647 C893.272551,62.8391326 893.400574,62.875 893.455763,62.875 Z" id="收藏次数"></path>
        </g>
    </g>
</svg>