<?xml version="1.0" encoding="UTF-8"?>
<svg width="22px" height="22px" viewBox="0 0 22 22" version="1.1" xmlns="http://www.w3.org/2000/svg" xmlns:xlink="http://www.w3.org/1999/xlink">
    <!-- Generator: Sketch 51.3 (57544) - http://www.bohemiancoding.com/sketch -->
    <title>错误提示</title>
    <desc>Created with Sketch.</desc>
    <defs></defs>
    <g id="Page-1" stroke="none" stroke-width="1" fill="none" fill-rule="evenodd">
        <g id="切图" transform="translate(-59.000000, -360.000000)" fill="#FF1A1A">
            <path d="M69.9999861,382 C63.9252529,382 59,377.074746 59,370.999721 C59,364.924696 63.9251692,360 69.9999861,360 C76.0754999,360 81,364.924501 81,370.999721 C81,377.074858 76.0754999,382 69.9999861,382 Z M70,363.384615 C69.5326821,363.384615 69.1538462,363.763451 69.1538462,364.230769 L69.1538462,374.384615 C69.1538462,374.851933 69.5326821,375.230769 70,375.230769 C70.4673179,375.230769 70.8461538,374.851933 70.8461538,374.384615 L70.8461538,364.230769 C70.8461538,363.763451 70.4673179,363.384615 70,363.384615 Z M70,378.615385 C70.4673179,378.615385 70.8461538,378.236549 70.8461538,377.769231 C70.8461538,377.301913 70.4673179,376.923077 70,376.923077 C69.5326821,376.923077 69.1538462,377.301913 69.1538462,377.769231 C69.1538462,378.236549 69.5326821,378.615385 70,378.615385 Z" id="错误提示"></path>
        </g>
    </g>
</svg>