<?xml version="1.0" encoding="UTF-8"?>
<svg width="258px" height="194px" viewBox="0 0 258 194" version="1.1" xmlns="http://www.w3.org/2000/svg" xmlns:xlink="http://www.w3.org/1999/xlink">
    <!-- Generator: Sketch 51.3 (57544) - http://www.bohemiancoding.com/sketch -->
    <title>密码修改失败-重新提交 copy</title>
    <desc>Created with Sketch.</desc>
    <defs></defs>
    <g id="Page-1" stroke="none" stroke-width="1" fill="none" fill-rule="evenodd">
        <g id="切图" transform="translate(-1390.000000, -91.000000)">
            <g id="密码修改失败-重新提交-copy" transform="translate(1390.000000, 91.000000)">
                <path d="M232.958932,80.2256745 C232.958932,74.3289415 237.60554,69.5486509 243.337369,69.5486509 L247.621562,69.5486509 C253.353392,69.5486509 258,64.7683604 258,58.8716274 L258,58.6770236 C258,52.7802905 253.353392,48 247.621562,48 L29.0733353,48 C23.341506,48 18.6948976,52.7802905 18.6948976,58.6770236 L18.6948976,58.8716274 C18.6948976,64.7683604 23.341506,69.5486509 29.0733353,69.5486509 L44.5918213,69.5486509 C50.3236506,69.5486509 54.9702589,74.3289415 54.9702589,80.2256745 C54.9702589,86.1224076 50.3236506,90.9026981 44.5918213,90.9026981 L39.3742571,90.9026981 C33.6424279,90.9026981 28.9958195,95.6829886 28.9958195,101.579722 L28.9958195,101.774325 C28.9958195,107.671059 24.3492112,112.451349 18.6173819,112.451349 L10.3784376,112.451349 C4.64660835,112.451349 0,117.23164 0,123.128373 L0,123.322976 C0,129.219709 4.64660835,134 10.3784376,134 L225.602163,134 C231.333993,134 235.980601,129.219709 235.980601,123.322976 L235.980601,123.128373 C235.980601,117.23164 231.333993,112.451349 225.602163,112.451349 L217.36293,112.451349 C211.6311,112.451349 206.984492,107.671059 206.984492,101.774325 L206.984492,101.579722 C206.984492,95.6829886 211.6311,90.9026981 217.36293,90.9026981 L222.580494,90.9026981 C228.312612,90.9026981 232.958932,86.1227052 232.958932,80.2256745 Z" id="Shape" fill="#E4C6FF" fill-rule="nonzero"></path>
                <ellipse id="Path" stroke="#9013FE" stroke-width="3" fill="#E4C6FF" cx="135.5" cy="79" rx="76" ry="77.5"></ellipse>
                <path d="M105,69 C105,71.5008591 106.620091,73.8117482 109.25,75.0621778 C111.879909,76.3126074 115.120091,76.3126074 117.75,75.0621778 C120.379909,73.8117482 122,71.5008591 122,69 C122,66.4991409 120.379909,64.1882518 117.75,62.9378222 C115.120091,61.6873926 111.879909,61.6873926 109.25,62.9378222 C106.620091,64.1882518 105,66.4991409 105,69 Z" id="Shape" fill="#9013FE" fill-rule="nonzero"></path>
                <path d="M150,69 C150,71.5008591 151.620091,73.8117482 154.25,75.0621778 C156.879909,76.3126074 160.120091,76.3126074 162.75,75.0621778 C165.379909,73.8117482 167,71.5008591 167,69 C167,66.4991409 165.379909,64.1882518 162.75,62.9378222 C160.120091,61.6873926 156.879909,61.6873926 154.25,62.9378222 C151.620091,64.1882518 150,66.4991409 150,69 Z" id="Shape" fill="#9013FE" fill-rule="nonzero"></path>
                <path d="M110,56 L123,56" id="Shape" fill="#FFC1D1" fill-rule="nonzero"></path>
                <path d="M120.299943,55.9999996 L106.700057,55.9999996 C106.249082,56.0003516 105.816492,55.789751 105.497605,55.414602 C105.178718,55.0394529 104.999701,54.5305407 105,54 C104.999701,53.4694593 105.178718,52.9605471 105.497605,52.585398 C105.816492,52.210249 106.249082,51.9996484 106.700057,52.0000004 L120.299943,52.0000004 C120.750918,51.9996484 121.183508,52.210249 121.502395,52.585398 C121.821282,52.9605471 122.000299,53.4694593 122,54 C122.000299,54.5305407 121.821282,55.0394529 121.502395,55.414602 C121.183508,55.789751 120.750918,56.0003516 120.299943,55.9999996 Z" id="Shape" fill="#9013FE" fill-rule="nonzero"></path>
                <path d="M148,56 L161,56" id="Shape" fill="#FFC1D1" fill-rule="nonzero"></path>
                <path d="M165.299943,55.9999996 L151.700057,55.9999996 C151.249082,56.0003516 150.816492,55.789751 150.497605,55.414602 C150.178718,55.0394529 149.999701,54.5305407 150,54 C149.999701,53.4694593 150.178718,52.9605471 150.497605,52.585398 C150.816492,52.210249 151.249082,51.9996484 151.700057,52.0000004 L165.299943,52.0000004 C165.750918,51.9996484 166.183508,52.210249 166.502395,52.585398 C166.821282,52.9605471 167.000299,53.4694593 167,54 C167.000224,54.5305137 166.821183,55.0393748 166.502312,55.4145047 C166.183441,55.7896346 165.750895,56.0002635 165.299943,55.9999996 Z" id="Shape" fill="#9013FE" fill-rule="nonzero"></path>
                <path d="M128,98 L150,98" id="Shape" fill="#FFC1D1" fill-rule="nonzero"></path>
                <path d="M95,88 C95,91.3137085 99.9248678,94 106,94 C112.075132,94 117,91.3137085 117,88 C117,84.6862915 112.075132,82 106,82 C99.9248678,82 95,84.6862915 95,88 Z" id="Shape" fill="#E4C6FF" fill-rule="nonzero"></path>
                <path d="M157,88 C157,91.3137085 161.924868,94 168,94 C174.075132,94 179,91.3137085 179,88 C179,84.6862915 174.075132,82 168,82 C161.924868,82 157,84.6862915 157,88 Z" id="Shape" fill="#E4C6FF" fill-rule="nonzero"></path>
                <path d="M69,187 C69,190.865993 97.2060608,194 132,194 C166.793939,194 195,190.865993 195,187 C195,183.134007 166.793939,180 132,180 C97.2060608,180 69,183.134007 69,187 Z" id="Shape" fill="#9013FE" fill-rule="nonzero" opacity="0.200000003"></path>
                <path d="M123.961429,98.4370676 C127.259877,95.6433584 131.567262,94 136.961195,94 C142.355128,94 146.701318,95.6433584 149.960961,98.4370676 C151.978835,100.12151 153.181799,101.88812 153.802683,103.120639 C154.268346,104.106654 153.880293,105.298089 152.948967,105.791096 C152.01764,106.284104 150.892287,105.873264 150.426624,104.887249 C150.349014,104.722913 150.154987,104.394242 149.844545,103.942318 C149.262466,103.120639 148.525166,102.29896 147.632645,101.559448 C144.993886,99.3409147 141.501412,97.985144 137,97.985144 C132.498588,97.985144 128.967309,99.3409147 126.367355,101.559448 C125.474834,102.340044 124.737534,103.161723 124.155455,103.942318 C123.845013,104.394242 123.650986,104.722913 123.573376,104.887249 C123.107713,105.873264 121.98236,106.284104 121.051033,105.791096 C120.119707,105.298089 119.731654,104.106654 120.197317,103.120639 C120.740591,101.847036 121.943554,100.12151 123.961429,98.4370676 Z" id="Path" fill="#9013FE"></path>
            </g>
        </g>
    </g>
</svg>