<?xml version="1.0" encoding="UTF-8"?>
<svg width="30px" height="34px" viewBox="0 0 30 34" version="1.1" xmlns="http://www.w3.org/2000/svg" xmlns:xlink="http://www.w3.org/1999/xlink">
    <!-- Generator: Sketch 51.3 (57544) - http://www.bohemiancoding.com/sketch -->
    <title>筛选</title>
    <desc>Created with Sketch.</desc>
    <defs></defs>
    <g id="Page-1" stroke="none" stroke-width="1" fill="none" fill-rule="evenodd">
        <g id="切图" transform="translate(-911.000000, -164.000000)" fill="#9B9B9B" fill-rule="nonzero">
            <path d="M925.974902,198 C923.897721,198 921.93594,195.935714 921.93594,193.75 L921.93594,180.878571 L921.93594,180.757143 L911.665437,168.128571 C911.088443,167.4 910.857645,166.55 911.088443,165.7 C911.434639,164.607143 912.242432,164 913.281022,164 L938.437984,164 C939.245776,164 940.168967,164.364286 940.630563,165.214286 C941.207558,166.185714 941.092159,167.278571 940.399765,168.007143 L930.013863,180.878571 L930.013863,193.871429 C930.013863,195.935714 928.052082,198 925.974902,198 Z M937.399394,166.428571 L914.55041,166.428571 C914.088814,166.428571 913.742617,167.035714 914.088814,167.4 L923.897721,179.542857 C924.128519,179.785714 924.243918,180.15 924.243918,180.392857 L924.243918,193.75 C924.243918,194.6 925.167109,195.571429 925.974902,195.571429 C926.782694,195.571429 927.705885,194.6 927.705885,193.75 L927.705885,180.392857 C927.705885,180.028571 927.821284,179.785714 928.052082,179.542857 L937.860989,167.4 C938.207186,167.035714 937.860989,166.428571 937.399394,166.428571 Z" id="筛选"></path>
        </g>
    </g>
</svg>