<?xml version="1.0" encoding="UTF-8"?>
<svg width="240px" height="48px" viewBox="0 0 240 48" version="1.1" xmlns="http://www.w3.org/2000/svg" xmlns:xlink="http://www.w3.org/1999/xlink">
    <!-- Generator: Sketch 51.3 (57544) - http://www.bohemiancoding.com/sketch -->
    <title>logo</title>
    <desc>Created with Sketch.</desc>
    <defs></defs>
    <g id="Page-1" stroke="none" stroke-width="1" fill="none" fill-rule="evenodd">
        <g id="切图" transform="translate(-161.000000, -43.000000)">
            <g id="logo" transform="translate(161.000000, 43.000000)">
                <g id="pic">
                    <rect id="Rectangle-3" fill="#8F00FF" x="0" y="18.8571429" width="9.375" height="28.2857143"></rect>
                    <rect id="Rectangle-3" fill="#A140FF" x="46.875" y="9.42857143" width="9.375" height="37.7142857"></rect>
                    <rect id="Rectangle-3" fill="#4800AF" x="0" y="9.42857143" width="9.375" height="9.42857143"></rect>
                    <rect id="Rectangle-3" fill="#A140FF" x="9.375" y="0" width="9.375" height="9.42857143"></rect>
                    <rect id="Rectangle-3" fill="#8F00FF" x="9.375" y="37.7142857" width="9.375" height="9.42857143"></rect>
                    <polygon id="Rectangle-3" fill="#8F00FF" points="18.75 20.7428571 28.125 29.9391671 37.5 20.7428571 37.5 47.1428571 28.125 37.4398996 18.75 47.1428571"></polygon>
                    <rect id="Rectangle-3" fill="#A140FF" x="37.5" y="37.7142857" width="18.75" height="9.42857143"></rect>
                    <rect id="Rectangle-3" fill="#A140FF" x="37.5" y="0" width="18.75" height="9.42857143"></rect>
                    <polygon id="Rectangle-3" fill="#4800AF" points="18.75 0 28.125 9.42857143 37.5 0 37.5 9.42857143 27.9927063 18.8571429 18.75 9.42857143"></polygon>
                </g>
                <path d="M172.87538,26.8530612 C172.87538,26.4984109 172.955574,26.001137 173.115965,25.3612245 C173.276355,24.721312 173.492879,24.2240381 173.765543,23.8693878 C174.455223,22.9287935 175.088756,22.0653101 175.666162,21.2789116 C176.243568,20.4925131 176.75681,19.8140618 177.205904,19.2435374 C177.654997,18.673013 178.104084,18.1641746 178.553177,17.7170068 C181.295856,14.8643848 183.260611,12.7326601 184.447501,11.3217687 C185.634391,9.9108773 186.227827,8.92789393 186.227827,8.37278912 C186.227827,8.00271924 186.0514,7.71360648 185.698541,7.50544218 C185.345682,7.29727787 182.282239,6.26802721 178.848272,6.86938776 C176.558961,7.27029478 174.119028,8.49229025 171.528472,10.5353741 C168.637489,13.6470453 166.592065,14.4998047 165.392201,13.0936523 C163.592405,10.9844238 167.988298,5.06530612 178.553177,3.44594029 C183.510151,2.68614432 189.788479,4.83400343 189.788479,6.86938776 C189.788479,7.97959739 189.620072,8.9047582 189.283252,9.64489796 C188.946431,10.3850377 188.28884,11.418134 187.310458,12.7442177 C185.081029,15.8589725 183.404973,18.0176811 182.282239,19.2204082 C179.026311,22.7977503 177.398371,24.8870718 177.398371,25.4884354 C177.398371,25.8276661 177.630934,25.9972789 178.096067,25.9972789 C178.481004,25.9972789 179.026324,25.73515 179.732042,25.2108844 C180.43776,24.6866187 181.287818,23.9310707 182.282239,22.9442177 C183.27666,21.9573647 184.655999,20.5464944 186.420295,18.7115646 C188.296864,16.7686978 189.880697,15.0532954 191.171841,13.5653061 C192.462985,12.0773168 193.525556,10.8052207 194.359587,9.74897959 C195.193618,8.69273848 195.634685,8.12607748 195.682803,8.04897959 C196.548912,7.03128743 197.443076,6.19478786 198.365321,5.53945578 C199.287567,4.88412371 199.876993,4.55646259 200.133618,4.55646259 C200.326087,4.55646259 200.55063,4.7260754 200.807255,5.06530612 C201.06388,5.40453684 201.284414,5.80543986 201.468863,6.26802721 C201.653312,6.73061456 201.745535,7.08525954 201.745535,7.33197279 C201.745535,7.40907068 201.553069,7.78298984 201.168132,8.4537415 C200.783195,9.12449315 200.366186,9.81836376 199.917092,10.5353741 C199.467998,11.2523845 198.746252,12.351013 197.75183,13.8312925 C195.570519,17.0848235 193.902482,19.8179028 192.74767,22.0306122 C191.592858,24.2433217 191.015461,25.6965952 191.015461,26.3904762 C191.015461,26.6371894 191.107684,26.8646248 191.292133,27.0727891 C191.476582,27.2809534 191.665038,27.385034 191.857507,27.385034 C192.114132,27.385034 192.579258,27.1884373 193.252898,26.7952381 C193.926538,26.4020389 194.672343,25.8353779 195.490335,25.0952381 C196.564952,24.1083851 197.543319,23.0829985 198.425467,22.0190476 C199.307615,20.9550967 200.181731,19.767807 201.04784,18.4571429 C201.913949,17.1464787 202.683812,15.9052213 203.357452,14.7333333 C204.031092,13.5614454 204.712742,12.3278976 205.402421,11.0326531 L204.993428,9.85306122 C204.929271,9.66802629 204.897194,9.42902641 204.897194,9.13605442 C204.897194,8.90476075 205.370339,8.15306759 206.316643,6.88095238 C207.262947,5.60883718 207.888461,4.97278912 208.193203,4.97278912 C208.530023,4.97278912 208.814712,5.20793416 209.047278,5.67823129 C209.279845,6.14852843 209.396126,6.62267335 209.396126,7.10068027 C209.396126,7.62494593 209.151534,8.66960669 208.662343,10.2346939 C208.173152,11.7997811 207.411308,13.6925059 206.376789,15.9129252 C205.34227,18.1333444 204.063175,20.3922788 202.539464,22.6897959 C201.224262,24.6943411 199.816856,26.4097434 198.317204,27.8360544 C196.817553,29.2623654 195.466282,30.3224455 194.263353,31.0163265 C193.060424,31.7102076 192.17027,32.0571429 191.592864,32.0571429 C190.935263,32.0571429 190.245594,31.7795946 189.523836,31.2244898 C188.930391,30.7310633 188.509372,30.2877571 188.260767,29.8945578 C188.012162,29.5013586 187.847764,29.0734717 187.767569,28.6108844 C187.687373,28.148297 187.647276,27.6086199 187.647276,26.9918367 C187.647276,25.6811726 188.024188,24.1469476 188.778024,22.3891156 C189.53186,20.6312837 190.654577,18.4417365 192.146209,15.8204082 C187.478844,21.2789389 183.866101,25.2494207 181.307871,27.7319728 C178.749642,30.2145249 176.87711,31.4557823 175.69022,31.4557823 C174.904307,31.4557823 174.238696,31.0047664 173.693368,30.1027211 C173.14804,29.2006758 172.87538,28.1174666 172.87538,26.8530612 Z M210.19081,24.1469388 L210.19081,24.7251701 C210.19081,25.6349252 210.423373,26.3442151 210.888506,26.8530612 C211.353638,27.3619073 211.963113,27.6163265 212.716949,27.6163265 C213.502863,27.6163265 214.316832,27.439004 215.158883,27.0843537 C216.000933,26.7297034 216.838961,26.2594134 217.672992,25.6734694 C218.507023,25.0875254 219.525488,24.3011387 220.728417,23.3142857 L220.728417,24.7251701 C218.916004,26.8222327 217.215889,28.4296996 215.628023,29.547619 C214.040156,30.6655385 212.428255,31.2244898 210.792272,31.2244898 C209.364796,31.2244898 208.23406,30.6925223 207.400029,29.6285714 C206.565998,28.5646205 206.148989,27.1074922 206.148989,25.2571429 C206.148989,23.6380871 206.54194,22.1693943 207.327853,20.8510204 C208.113767,19.5326465 209.396872,18.1410504 211.177207,16.6761905 C212.396175,15.6739179 213.607106,14.9183699 214.810035,14.4095238 C216.012964,13.9006777 217.087565,13.6462585 218.033869,13.6462585 C218.787705,13.6462585 219.38515,13.8120165 219.826224,14.1435374 C220.267298,14.4750583 220.487832,14.9723323 220.487832,15.6353741 C220.487832,16.6068076 220.11092,17.5743716 219.357084,18.5380952 C218.603249,19.5018189 217.452464,20.4578184 215.904695,21.4061224 C214.356926,22.3544265 212.452317,23.2680228 210.19081,24.1469388 Z M210.431395,22.6435374 C211.87491,22.1038522 213.109899,21.4331106 214.136398,20.6312925 C215.162898,19.8294744 215.920732,19.0623619 216.409923,18.329932 C216.899114,17.597502 217.143706,17.0616797 217.143706,16.722449 C217.143706,16.3677987 216.975298,16.1904762 216.638478,16.1904762 C216.349775,16.1904762 215.88064,16.3677987 215.231058,16.722449 C214.581476,17.0770993 213.923885,17.5396797 213.258264,18.1102041 C212.592643,18.6807285 211.995198,19.3514701 211.465909,20.122449 C210.93662,20.8934279 210.591785,21.7337823 210.431395,22.6435374 Z M236.848341,23.3605442 L236.848341,24.8639456 C235.18028,25.8816377 233.865097,26.3904762 232.902754,26.3904762 C232.373465,26.3904762 231.812106,26.3056698 231.218661,26.1360544 C229.775146,27.8938863 228.536148,29.1814018 227.501629,29.9986395 C226.46711,30.8158771 225.428596,31.2244898 224.386058,31.2244898 C223.183129,31.2244898 222.256887,30.6154256 221.607305,29.3972789 C220.957724,28.1791322 220.632938,26.6680362 220.632938,24.8639456 C220.632938,22.4122326 221.402801,19.7408308 222.94255,16.8496599 C224.482299,13.9584889 226.338792,11.2523936 228.512084,8.73129252 C230.685376,6.21019148 232.790471,4.1247248 234.827431,2.47482993 C236.864391,0.824935061 238.243729,0 238.965486,0 C239.655165,0 240,0.454870735 240,1.36462585 C240,5.40455535 234.610958,12.4511969 223.832713,22.5047619 C223.800635,22.7823143 223.784596,23.3297011 223.784596,24.1469388 C223.784596,26.2748406 224.378032,27.3387755 225.564923,27.3387755 C226.030055,27.3387755 226.49919,27.1575982 226.972343,26.7952381 C227.445495,26.432878 228.171251,25.7428622 229.149633,24.7251701 C228.764696,23.8925128 228.57223,23.275739 228.57223,22.8748299 C228.57223,22.0267531 228.933104,21.109302 229.654861,20.122449 C230.376619,19.135596 231.198608,18.2836771 232.120854,17.5666667 C233.043099,16.8496563 233.71272,16.4911565 234.129735,16.4911565 C234.787336,16.4911565 235.116132,16.9460272 235.116132,17.8557823 C235.116132,18.5496633 234.927676,19.3823081 234.550758,20.3537415 C234.17384,21.3251749 233.624511,22.4353679 232.902754,23.6843537 C233.175418,23.9002278 233.391942,24.0582761 233.552332,24.1585034 C233.712723,24.2587307 233.953305,24.3088435 234.274086,24.3088435 C235.011882,24.3088435 235.869959,23.9927469 236.848341,23.3605442 Z M224.626643,19.8911565 C225.460673,19.1972754 226.298701,18.3761952 227.140752,17.4278912 C227.982802,16.4795871 229.213781,15.0263136 230.833726,13.0680272 C232.389514,11.1868387 233.612474,9.61792012 234.502641,8.36122449 C235.392809,7.10452886 236.062429,6.05986811 236.511523,5.22721088 C236.960616,4.39455366 237.18516,3.82403782 237.18516,3.51564626 C237.18516,3.28435259 237.121005,3.16870748 236.992692,3.16870748 C236.639833,3.16870748 235.906057,3.72765881 234.791343,4.84557823 C233.676629,5.96349765 232.405553,7.49386784 230.978077,9.43673469 C229.005273,12.1197413 227.577818,14.1396758 226.69567,15.4965986 C225.813522,16.8535215 225.123853,18.3183595 224.626643,19.8911565 Z" id="Web" fill="#702CAD"></path>
                <path d="M65.625,33.9428571 L65.625,15.0857143 L73.7291397,15.0857143 C75.2319016,15.0857143 76.3804238,15.2400686 77.1747408,15.5487819 C77.9690578,15.8574952 78.609511,16.4298925 79.0961196,17.265991 C79.5827282,18.1020895 79.8260289,19.1203994 79.8260289,20.3209511 C79.8260289,21.3671461 79.6399754,22.2696902 79.267863,23.0286104 C78.8957505,23.7875306 78.3841035,24.4028041 77.7329067,24.8744494 C77.4562077,25.0745414 76.8873078,25.3232258 76.0262071,25.6205028 L80.625,33.9428571 L75.6075826,33.9428571 L72.3066555,26.3151043 L70.5089517,26.2893783 L70.5089517,33.9428571 L65.625,33.9428571 Z M69.375,22.6285714 L71.1092615,22.6285714 C71.2969138,22.6285714 71.6601063,22.5442003 72.1988499,22.3754554 C72.4712483,22.2995202 72.6937037,22.1054666 72.8662228,21.7932886 C73.0387418,21.4811106 73.125,21.1225332 73.125,20.7175455 C73.125,20.1185013 72.9888028,19.6586785 72.7164044,19.3380633 C72.4440059,19.0174481 71.9325098,18.8571429 71.1819007,18.8571429 L69.375,18.8571429 L69.375,22.6285714 Z M82.5,15.0857143 L95.3913835,15.0857143 L95.3913835,19.1118301 L87.3209951,19.1118301 L87.3209951,22.1089066 L94.8073422,22.1089066 L94.8073422,25.9549406 L87.3209951,25.9549406 L87.3209951,29.6723446 L95.625,29.6723446 L95.625,33.9428571 L82.5,33.9428571 L82.5,15.0857143 Z M106.353387,29.7835589 L101.681003,29.7835589 L99.9517653,33.9428571 L95.625,33.9428571 L104.0625,15.0857143 L112.5,33.9428571 L108.188477,33.9428571 L106.353387,29.7835589 Z M105,26.4 L103.125,22.6285714 L101.25,26.4 L105,26.4 Z M112.5,15.0857143 L116.893319,15.0857143 L116.893319,29.2993179 L123.75,29.2993179 L123.75,33.9428571 L112.5,33.9428571 L112.5,15.0857143 Z M127.5,15.0857143 L127.934778,15.0857143 L135.9375,23.2210798 L143.960689,15.0857143 L144.375,15.0857143 L144.375,33.9428571 L140.588614,33.9428571 L140.588614,24.5142857 L135.9375,28.5361607 L131.296619,24.5142857 L131.296619,33.9428571 L127.5,33.9428571 L127.5,15.0857143 Z M155.102335,29.6677159 L150.368691,29.6677159 L148.701765,33.9428571 L144.375,33.9428571 L152.8125,15.0857143 L161.25,33.9428571 L156.938477,33.9428571 L155.102335,29.6677159 Z M155.625,26.4 L153.75,22.6285714 L151.875,26.4 L155.625,26.4 Z M161.736982,15.0857143 L167.019683,15.0857143 L169.772193,20.8869226 L172.440009,15.0857143 L177.669777,15.0857143 L172.842299,24.218437 L178.125,33.9428571 L172.736434,33.9428571 L169.676913,27.884389 L166.606807,33.9428571 L161.25,33.9428571 L166.606807,24.115533 L161.736982,15.0857143 Z" id="REALMAX" fill="#000000"></path>
            </g>
        </g>
    </g>
</svg>