<?xml version="1.0" encoding="UTF-8"?>
<svg width="168px" height="33px" viewBox="0 0 168 33" version="1.1" xmlns="http://www.w3.org/2000/svg" xmlns:xlink="http://www.w3.org/1999/xlink">
    <!-- Generator: Sketch 51.3 (57544) - http://www.bohemiancoding.com/sketch -->
    <title>logo -深色底</title>
    <desc>Created with Sketch.</desc>
    <defs></defs>
    <g id="Page-1" stroke="none" stroke-width="1" fill="none" fill-rule="evenodd">
        <g id="logo--深色底">
            <g id="pic">
                <rect id="Rectangle-3" fill="#8F00FF" x="0" y="13.2" width="6.5625" height="19.8"></rect>
                <rect id="Rectangle-3" fill="#A140FF" x="32.8125" y="6.6" width="6.5625" height="26.4"></rect>
                <rect id="Rectangle-3" fill="#4800AF" x="0" y="6.6" width="6.5625" height="6.6"></rect>
                <rect id="Rectangle-3" fill="#A140FF" x="6.5625" y="0" width="6.5625" height="6.6"></rect>
                <rect id="Rectangle-3" fill="#8F00FF" x="6.5625" y="26.4" width="6.5625" height="6.6"></rect>
                <polygon id="Rectangle-3" fill="#8F00FF" points="13.125 14.52 19.6875 20.957417 26.25 14.52 26.25 33 19.6875 26.2079297 13.125 33"></polygon>
                <rect id="Rectangle-3" fill="#A140FF" x="26.25" y="26.4" width="13.125" height="6.6"></rect>
                <rect id="Rectangle-3" fill="#A140FF" x="26.25" y="0" width="13.125" height="6.6"></rect>
                <polygon id="Rectangle-3" fill="#4800AF" points="13.125 0 19.6875 6.6 26.25 0 26.25 6.6 19.5948944 13.2 13.125 6.6"></polygon>
            </g>
            <path d="M121.012766,18.7971429 C121.012766,18.5488876 121.068902,18.2007959 121.181175,17.7528571 C121.293449,17.3049184 121.445016,16.9568266 121.63588,16.7085714 C122.118656,16.0501554 122.562129,15.445717 122.966313,14.8952381 C123.370498,14.3447592 123.729767,13.8698433 124.044132,13.4704762 C124.358498,13.0711091 124.672859,12.7149222 124.987224,12.4019048 C126.907099,10.4050694 128.282427,8.91286208 129.11325,7.9252381 C129.944074,6.93761411 130.359479,6.24952575 130.359479,5.86095238 C130.359479,5.60190347 130.23598,5.39952454 129.988979,5.25380952 C129.741977,5.10809451 127.597567,4.38761905 125.193791,4.80857143 C123.591273,5.08920635 121.883319,5.94460317 120.06993,7.3747619 C118.046242,9.5529317 116.614446,10.1498633 115.774541,9.16555664 C114.514684,7.68909668 117.591809,3.54571429 124.987224,2.4121582 C128.457105,1.88030102 132.851936,3.3838024 132.851936,4.80857143 C132.851936,5.58571817 132.73405,6.23333074 132.498276,6.75142857 C132.262502,7.2695264 131.802188,7.99269377 131.11732,8.92095238 C129.55672,11.1012807 128.383481,12.6123767 127.597567,13.4542857 C125.318418,15.9584252 124.17886,17.4209503 124.17886,17.8419048 C124.17886,18.0793663 124.341654,18.1980952 124.667247,18.1980952 C124.936703,18.1980952 125.318427,18.014605 125.812429,17.647619 C126.306432,17.2806331 126.901472,16.7517495 127.597567,16.0609524 C128.293662,15.3701553 129.259199,14.3825461 130.494206,13.0980952 C131.807805,11.7380884 132.916488,10.5373068 133.820289,9.49571429 C134.724089,8.45412178 135.467889,7.56365449 136.051711,6.82428571 C136.635533,6.08491694 136.94428,5.68825424 136.977962,5.63428571 C137.584238,4.9219012 138.210153,4.3363515 138.855725,3.87761905 C139.501297,3.4188866 139.913895,3.18952381 140.093533,3.18952381 C140.228261,3.18952381 140.385441,3.30825278 140.565079,3.54571429 C140.744716,3.78317579 140.89909,4.0638079 141.028204,4.38761905 C141.157318,4.71143019 141.221875,4.95968168 141.221875,5.13238095 C141.221875,5.18634948 141.087149,5.44809289 140.817692,5.91761905 C140.548236,6.3871452 140.25633,6.87285463 139.941964,7.3747619 C139.627599,7.87666918 139.122376,8.6457091 138.426281,9.68190476 C136.899363,11.9593765 135.731738,13.8725319 134.923369,15.4214286 C134.115001,16.9703252 133.710823,17.9876166 133.710823,18.4733333 C133.710823,18.6460326 133.775379,18.8052374 133.904493,18.9509524 C134.033608,19.0966674 134.165527,19.1695238 134.300255,19.1695238 C134.479892,19.1695238 134.80548,19.0319061 135.277029,18.7566667 C135.748577,18.4814272 136.27064,18.0847645 136.843234,17.5666667 C137.595466,16.8758696 138.280324,16.158099 138.897827,15.4133333 C139.515331,14.6685677 140.127212,13.8374649 140.733488,12.92 C141.339764,12.0025351 141.878668,11.1336549 142.350216,10.3133333 C142.821765,9.49301177 143.298919,8.62952834 143.781695,7.72285714 L143.495399,6.89714286 C143.45049,6.7676184 143.428036,6.60031849 143.428036,6.3952381 C143.428036,6.23333252 143.759237,5.70714731 144.42165,4.81666667 C145.084063,3.92618602 145.521923,3.48095238 145.735242,3.48095238 C145.971016,3.48095238 146.170299,3.64555391 146.333095,3.9747619 C146.495891,4.3039699 146.577288,4.63587134 146.577288,4.97047619 C146.577288,5.33746215 146.406074,6.06872468 146.06364,7.16428571 C145.721206,8.25984675 145.187916,9.58475413 144.463752,11.1390476 C143.739589,12.6933411 142.844222,14.2745951 141.777625,15.8828571 C140.856983,17.2860388 139.871799,18.4868204 138.822043,19.4852381 C137.772287,20.4836558 136.826398,21.2257119 135.984347,21.7114286 C135.142297,22.1971453 134.519189,22.44 134.115005,22.44 C133.654684,22.44 133.171916,22.2457162 132.666685,21.8571429 C132.251274,21.5117443 131.956561,21.2014299 131.782537,20.9261905 C131.608513,20.650951 131.493435,20.3514302 131.437298,20.027619 C131.381161,19.7038079 131.353093,19.3260339 131.353093,18.8942857 C131.353093,17.9768208 131.616932,16.9028633 132.144617,15.672381 C132.672302,14.4418986 133.458204,12.9092155 134.502346,11.0742857 C131.235191,14.8952572 128.70627,17.6745945 126.91551,19.412381 C125.124749,21.1501674 123.813977,22.0190476 122.983154,22.0190476 C122.433015,22.0190476 121.967087,21.7033365 121.585358,21.0719048 C121.203628,20.440473 121.012766,19.6822266 121.012766,18.7971429 Z M147.133567,16.9028571 L147.133567,17.307619 C147.133567,17.9444476 147.296361,18.4409506 147.621954,18.7971429 C147.947547,19.1533351 148.374179,19.3314286 148.901864,19.3314286 C149.452004,19.3314286 150.021783,19.2073028 150.611218,18.9590476 C151.200653,18.7107924 151.787273,18.3815894 152.371094,17.9714286 C152.954916,17.5612678 153.667841,17.0107971 154.509892,16.32 L154.509892,17.307619 C153.241203,18.7755629 152.051122,19.9007897 150.939616,20.6833333 C149.828109,21.4658769 148.699779,21.8571429 147.55459,21.8571429 C146.555357,21.8571429 145.763842,21.4847656 145.18002,20.74 C144.596198,19.9952344 144.304292,18.9752446 144.304292,17.68 C144.304292,16.546661 144.579358,15.518576 145.129497,14.5957143 C145.679637,13.6728525 146.57781,12.6987353 147.824045,11.6733333 C148.677323,10.9717425 149.524974,10.4428589 150.367025,10.0866667 C151.209075,9.73047441 151.961295,9.55238095 152.623708,9.55238095 C153.151393,9.55238095 153.569605,9.66841154 153.878357,9.90047619 C154.187109,10.1325408 154.341483,10.4806326 154.341483,10.9447619 C154.341483,11.6247653 154.077644,12.3020601 153.549959,12.9766667 C153.022274,13.6512732 152.216725,14.3204729 151.133287,14.9842857 C150.049848,15.6480986 148.716622,16.287616 147.133567,16.9028571 Z M147.301976,15.8504762 C148.312437,15.4726965 149.176929,15.0031774 149.895479,14.4419048 C150.614028,13.8806321 151.144512,13.3436534 151.486946,12.8309524 C151.82938,12.3182514 152.000594,11.9431758 152.000594,11.7057143 C152.000594,11.4574591 151.882709,11.3333333 151.646935,11.3333333 C151.444843,11.3333333 151.116448,11.4574591 150.661741,11.7057143 C150.207033,11.9539695 149.74672,12.2777758 149.280785,12.6771429 C148.81485,13.0765099 148.396638,13.546029 148.026136,14.0857143 C147.655634,14.6253995 147.41425,15.2136476 147.301976,15.8504762 Z M165.793839,16.352381 L165.793839,17.4047619 C164.626196,18.1171464 163.705568,18.4733333 163.031928,18.4733333 C162.661425,18.4733333 162.268474,18.4139688 161.853063,18.2952381 C160.842602,19.5257204 159.975303,20.4269813 159.25114,20.9990476 C158.526977,21.571114 157.800018,21.8571429 157.070241,21.8571429 C156.22819,21.8571429 155.579821,21.4307979 155.125114,20.5780952 C154.670407,19.7253926 154.443056,18.6676254 154.443056,17.4047619 C154.443056,15.6885628 154.981961,13.8185815 156.059785,11.7947619 C157.13761,9.77094226 158.437155,7.87667549 159.958459,6.11190476 C161.479763,4.34713403 162.953329,2.88730736 164.379201,1.73238095 C165.805073,0.577454543 166.77061,0 167.27584,0 C167.758616,0 168,0.318409514 168,0.955238095 C168,3.78318874 164.227671,8.71583783 156.682899,15.7533333 C156.660445,15.94762 156.649217,16.3307908 156.649217,16.9028571 C156.649217,18.3923884 157.064623,19.1371429 157.895446,19.1371429 C158.221039,19.1371429 158.549433,19.0103187 158.88064,18.7566667 C159.211846,18.5030146 159.719876,18.0200036 160.404743,17.307619 C160.135287,16.724759 160.000561,16.2930173 160.000561,16.012381 C160.000561,15.4187272 160.253173,14.7765114 160.758403,14.0857143 C161.263633,13.3949172 161.839026,12.7985739 162.484597,12.2966667 C163.130169,11.7947594 163.598904,11.5438095 163.890815,11.5438095 C164.351136,11.5438095 164.581292,11.862219 164.581292,12.4990476 C164.581292,12.9847643 164.449373,13.5676156 164.185531,14.247619 C163.921688,14.9276224 163.537158,15.7047575 163.031928,16.5790476 C163.222792,16.7301595 163.374359,16.8407933 163.486632,16.9109524 C163.598906,16.9811115 163.767313,17.0161905 163.99186,17.0161905 C164.508318,17.0161905 165.108971,16.7949228 165.793839,16.352381 Z M157.23865,13.9238095 C157.822471,13.4380928 158.409091,12.8633367 158.998526,12.1995238 C159.587962,11.535711 160.449647,10.5184196 161.583608,9.14761905 C162.67266,7.83078707 163.528732,6.73254408 164.151849,5.85285714 C164.774966,4.9731702 165.243701,4.24190768 165.558066,3.65904762 C165.872432,3.07618756 166.029612,2.67682648 166.029612,2.46095238 C166.029612,2.29904681 165.984703,2.21809524 165.894885,2.21809524 C165.647883,2.21809524 165.13424,2.60936117 164.35394,3.39190476 C163.57364,4.17444836 162.683887,5.24570749 161.684654,6.60571429 C160.303691,8.48381891 159.304473,9.89777303 158.686969,10.847619 C158.069466,11.7974651 157.586697,12.8228516 157.23865,13.9238095 Z" id="Web" fill="#702CAD"></path>
            <path d="M45.9375,23.76 L45.9375,10.56 L51.6103978,10.56 C52.6623311,10.56 53.4662966,10.668048 54.0223185,10.8841473 C54.5783404,11.1002466 55.0266577,11.5009248 55.3672837,12.0861937 C55.7079097,12.6714627 55.8782202,13.3842796 55.8782202,14.2246658 C55.8782202,14.9570023 55.7479828,15.5887832 55.4875041,16.1200273 C55.2270253,16.6512714 54.8688725,17.0819629 54.4130347,17.4121146 C54.2193454,17.552179 53.8211155,17.7262581 53.218345,17.934352 L56.4375,23.76 L52.9253079,23.76 L50.6146589,18.420573 L49.3562662,18.4025648 L49.3562662,23.76 L45.9375,23.76 Z M48.5625,15.84 L49.7764831,15.84 C49.9078396,15.84 50.1620744,15.7809402 50.5391949,15.6628188 C50.7298738,15.6096642 50.8855926,15.4738266 51.0063559,15.255302 C51.1271192,15.0367774 51.1875,14.7857732 51.1875,14.5022819 C51.1875,14.0829509 51.092162,13.7610749 50.9014831,13.5366443 C50.7108041,13.3122136 50.3527569,13.2 49.8273305,13.2 L48.5625,13.2 L48.5625,15.84 Z M57.75,10.56 L66.7739684,10.56 L66.7739684,13.378281 L61.1246966,13.378281 L61.1246966,15.4762347 L66.3651396,15.4762347 L66.3651396,18.1684584 L61.1246966,18.1684584 L61.1246966,20.7706412 L66.9375,20.7706412 L66.9375,23.76 L57.75,23.76 L57.75,10.56 Z M74.4473706,20.8484912 L71.1767022,20.8484912 L69.9662357,23.76 L66.9375,23.76 L72.84375,10.56 L78.75,23.76 L75.7319337,23.76 L74.4473706,20.8484912 Z M73.5,18.48 L72.1875,15.84 L70.875,18.48 L73.5,18.48 Z M78.75,10.56 L81.8253233,10.56 L81.8253233,20.5095225 L86.625,20.5095225 L86.625,23.76 L78.75,23.76 L78.75,10.56 Z M89.25,10.56 L89.5543447,10.56 L95.15625,16.2547559 L100.772482,10.56 L101.0625,10.56 L101.0625,23.76 L98.41203,23.76 L98.41203,17.16 L95.15625,19.9753125 L91.9076334,17.16 L91.9076334,23.76 L89.25,23.76 L89.25,10.56 Z M108.571635,20.7674011 L105.258084,20.7674011 L104.091236,23.76 L101.0625,23.76 L106.96875,10.56 L112.875,23.76 L109.856934,23.76 L108.571635,20.7674011 Z M108.9375,18.48 L107.625,15.84 L106.3125,18.48 L108.9375,18.48 Z M113.215888,10.56 L116.913778,10.56 L118.840535,14.6208458 L120.708007,10.56 L124.368844,10.56 L120.989609,16.9529059 L124.6875,23.76 L120.915503,23.76 L118.773839,19.5190723 L116.624765,23.76 L112.875,23.76 L116.624765,16.8808731 L113.215888,10.56 Z" id="REALMAX" fill="#FFFFFF"></path>
        </g>
    </g>
</svg>