<?xml version="1.0" encoding="UTF-8"?>
<svg width="34px" height="24px" viewBox="0 0 34 24" version="1.1" xmlns="http://www.w3.org/2000/svg" xmlns:xlink="http://www.w3.org/1999/xlink">
    <!-- Generator: Sketch 51.3 (57544) - http://www.bohemiancoding.com/sketch -->
    <title>菜单选中时</title>
    <desc>Created with Sketch.</desc>
    <defs></defs>
    <g id="Page-1" stroke="none" stroke-width="1" fill="none" fill-rule="evenodd">
        <g id="切图" transform="translate(-357.000000, -161.000000)" fill="#9013FE" fill-rule="nonzero" stroke="#9013FE">
            <path d="M370.054954,183.999991 C369.647335,184.000915 369.256249,183.835029 368.968647,183.539215 L358.449065,172.766228 C357.850312,172.151317 357.850312,171.156185 358.449065,170.541274 C358.739726,170.244363 359.125072,170.080498 359.535372,170.080498 C359.945675,170.080498 360.331753,170.244363 360.621679,170.541274 L370.055667,180.202516 L387.378624,162.460783 C387.666042,162.164685 388.057249,161.998747 388.464931,162.000007 C388.875234,162.000007 389.261312,162.16312 389.551238,162.460783 C390.149587,163.075865 390.149587,164.070654 389.551238,164.685736 L371.141236,183.539215 C370.853911,183.835455 370.462642,184.001418 370.054929,183.999991 L370.054954,183.999991 Z" id="菜单选中时"></path>
        </g>
    </g>
</svg>