<?xml version="1.0" encoding="UTF-8"?>
<svg width="42px" height="42px" viewBox="0 0 42 42" version="1.1" xmlns="http://www.w3.org/2000/svg" xmlns:xlink="http://www.w3.org/1999/xlink">
    <!-- Generator: Sketch 51.3 (57544) - http://www.bohemiancoding.com/sketch -->
    <title>我的页面-收藏</title>
    <desc>Created with Sketch.</desc>
    <defs></defs>
    <g id="Page-1" stroke="none" stroke-width="1" fill="none" fill-rule="evenodd">
        <g id="切图" transform="translate(-1485.000000, -65.000000)">
            <g id="我的页面-收藏" transform="translate(1484.000000, 64.000000)">
                <rect id="bounds" x="0" y="0" width="44" height="44"></rect>
                <path d="M33.2975851,42 C33.7224227,42 34.0997668,41.8606664 34.4239864,41.5812782 C35.0851606,41.0652606 35.4182771,40.2363296 35.2663837,39.393327 L33.2047312,27.8413179 L33.5820746,27.4715249 L41.3605573,19.8493158 C41.9458868,19.2402169 42.1499953,18.3602863 41.8701361,17.4808845 C41.6710221,16.7038858 41.0238557,16.1202318 40.2366736,16.0101179 L28.9028003,13.948208 L28.6831556,13.4839372 L23.8160987,3.19319757 C23.5269774,2.49118619 22.7746983,2 22.0146786,2 C21.2761882,2 20.558842,2.47774501 20.1925507,3.24003475 L15.1284545,13.944197 L14.6281615,14.0388532 L3.74268628,16.0967116 C2.96190503,16.1982726 2.34248283,16.7569051 2.07911078,17.5762108 C1.86215108,18.3664062 2.09878162,19.3349492 2.64398071,19.9031811 L10.8282731,27.8410241 L10.7306138,28.3679691 L8.68483085,39.4063769 C8.53509737,40.1854466 8.88852519,41.0809109 9.52964666,41.5812782 C10.1106157,42.0346992 10.9615231,42.0947305 11.6360222,41.7174568 L22.0164417,36.3577093 L32.3203904,41.7188974 C32.659651,41.8954162 33.0329462,42 33.2975851,42 Z" id="Shape-Copy-13" stroke="#FFFFFF" stroke-width="2" fill-rule="nonzero"></path>
            </g>
        </g>
    </g>
</svg>