<?xml version="1.0" encoding="UTF-8"?>
<svg width="24px" height="24px" viewBox="0 0 24 24" version="1.1" xmlns="http://www.w3.org/2000/svg" xmlns:xlink="http://www.w3.org/1999/xlink">
    <!-- Generator: Sketch 51.3 (57544) - http://www.bohemiancoding.com/sketch -->
    <title>查看次数</title>
    <desc>Created with Sketch.</desc>
    <defs></defs>
    <g id="Page-1" stroke="none" stroke-width="1" fill="none" fill-rule="evenodd">
        <g id="切图" transform="translate(-788.000000, -40.000000)" fill="#BBBBBB" fill-rule="nonzero">
            <path d="M800,64 C793.3835,64 788,58.6165 788,52 C788,45.3835 793.3835,40 800,40 C806.6165,40 812,45.3835 812,52 C812,58.6165 806.6165,64 800,64 Z M800.000674,42.25 C794.624197,42.25 790.25,46.6241969 790.25,52.0006736 C790.25,57.3771503 794.624197,61.75 800.000674,61.75 C805.37715,61.75 809.75,57.3771503 809.75,52.0006736 C809.75,46.6241969 805.37715,42.25 800.000674,42.25 Z M805.305842,51.916591 C805.921238,52.407706 805.530573,52.8659234 805.105936,53.1796261 C805.040607,53.2266228 797.024772,57.3928765 797.024772,57.3928765 L797.011707,57.3881768 C796.513902,57.638434 795.817498,57.638434 795.579701,57.0638999 C795.550956,56.9957547 795.5,48.4552871 795.5,48.4552871 L795.520905,48.4400132 C795.54573,47.9277496 795.775687,47.3955125 796.581844,47.5177038 C796.662851,47.529453 805.305842,51.916591 805.305842,51.916591 Z" id="查看次数"></path>
        </g>
    </g>
</svg>