<?xml version="1.0" encoding="UTF-8"?>
<svg width="34px" height="34px" viewBox="0 0 34 34" version="1.1" xmlns="http://www.w3.org/2000/svg" xmlns:xlink="http://www.w3.org/1999/xlink">
    <!-- Generator: Sketch 51.3 (57544) - http://www.bohemiancoding.com/sketch -->
    <title>分类</title>
    <desc>Created with Sketch.</desc>
    <defs></defs>
    <g id="Page-1" stroke="none" stroke-width="1" fill="none" fill-rule="evenodd">
        <g id="切图" transform="translate(-982.000000, -115.000000)" fill="#9B9B9B" fill-rule="nonzero">
            <path d="M1011.36385,115 L986.636452,115 C984.086479,115 982,117.086462 982,119.636452 L982,144.363782 C982,146.913642 984.086462,149 986.636452,149 L1011.36378,149 C1013.91364,149 1016,146.913652 1016,144.363782 L1016,119.636318 C1016.00006,117.086345 1013.91371,115 1011.36385,115 Z M1013.73324,143.786612 C1013.73324,144.567387 1013.42386,145.304014 1012.86394,145.86404 C1012.30402,146.423849 1011.5674,146.733333 1010.78651,146.733333 L987.213394,146.733333 C986.432343,146.733333 985.695772,146.423959 985.135962,145.86404 C984.576043,145.304122 984.266667,144.567495 984.266667,143.786612 L984.266667,120.213388 C984.266667,119.432505 984.575933,118.695769 985.135962,118.13596 C985.695772,117.576042 986.432401,117.266667 987.213394,117.266667 L1010.78661,117.266667 C1011.56738,117.266667 1012.30401,117.575932 1012.86404,118.13596 C1013.42385,118.695769 1013.73333,119.432396 1013.73333,120.213388 L1013.73333,143.786549 L1013.73322,143.786549 L1013.73324,143.786612 Z M1009.12434,122.933333 C1009.79051,122.933333 1010.33333,123.442152 1010.33333,124.06661 C1010.33333,124.691125 1009.79364,125.2 1009.12434,125.2 L993.408695,125.2 C992.742521,125.2 992.2,124.691181 992.2,124.06661 C992.19994,123.44204 992.742461,122.933333 993.408695,122.933333 L1009.12434,122.933333 Z M1009.12434,130.866667 C1009.79051,130.866667 1010.33333,131.375486 1010.33333,131.999944 C1010.33333,132.624458 1009.79364,133.133333 1009.12434,133.133333 L993.408695,133.133333 C992.742521,133.133333 992.2,132.624514 992.2,131.999944 C992.19994,131.375373 992.742461,130.866667 993.408695,130.866667 L1009.12434,130.866667 Z M1009.12434,138.8 C1009.79051,138.8 1010.33333,139.308819 1010.33333,139.933277 C1010.33333,140.557791 1009.79364,141.066667 1009.12434,141.066667 L993.408695,141.066667 C992.742521,141.066667 992.2,140.557848 992.2,139.933277 C992.19994,139.308706 992.742461,138.8 993.408695,138.8 L1009.12434,138.8 Z M988.799944,122.933333 C989.424458,122.933333 989.933333,123.442152 989.933333,124.06661 C989.933333,124.691125 989.427394,125.2 988.799944,125.2 C988.172775,125.2 987.666667,124.691181 987.666667,124.06661 C987.66661,123.44204 988.175429,122.933333 988.799944,122.933333 Z M988.799944,130.866667 C989.424458,130.866667 989.933333,131.375486 989.933333,131.999944 C989.933333,132.624458 989.427394,133.133333 988.799944,133.133333 C988.172775,133.133333 987.666667,132.624514 987.666667,131.999944 C987.66661,131.375373 988.175429,130.866667 988.799944,130.866667 Z M988.799944,138.8 C989.424458,138.8 989.933333,139.308819 989.933333,139.933277 C989.933333,140.557791 989.427394,141.066667 988.799944,141.066667 C988.172775,141.066667 987.666667,140.557848 987.666667,139.933277 C987.66661,139.308706 988.175429,138.8 988.799944,138.8 Z" id="分类"></path>
        </g>
    </g>
</svg>