<?xml version="1.0" encoding="UTF-8"?>
<svg width="34px" height="34px" viewBox="0 0 34 34" version="1.1" xmlns="http://www.w3.org/2000/svg" xmlns:xlink="http://www.w3.org/1999/xlink">
    <!-- Generator: Sketch 51.3 (57544) - http://www.bohemiancoding.com/sketch -->
    <title>排序</title>
    <desc>Created with Sketch.</desc>
    <defs></defs>
    <g id="Page-1" stroke="none" stroke-width="1" fill="none" fill-rule="evenodd">
        <g id="切图" transform="translate(-1050.000000, -115.000000)" fill="#9B9B9B" fill-rule="nonzero">
            <path d="M1055.07655,126.041694 L1061.13566,126.041694 L1062.6095,130.201924 L1066.21221,130.201924 L1059.98934,115.409995 L1059.98934,115.255913 L1056.22287,115.255913 L1050,130.201924 L1053.43895,130.201924 L1055.07655,126.041694 Z M1055.89535,123.730455 L1056.55039,122.035547 C1057.20543,120.494721 1057.69671,119.107977 1058.02423,117.721234 L1058.18798,118.029399 C1058.67926,119.26206 1059.17054,120.648803 1059.66182,121.881464 L1060.31686,123.576372 L1055.89535,123.576372 L1055.89535,123.730455 Z M1064.57461,135.90298 L1064.57461,134.053989 L1052.12888,134.053989 L1052.12888,136.51931 L1060.31686,136.51931 L1051.31008,147.305091 L1051.31008,149 L1064.57461,149 L1064.57461,146.688761 L1055.56783,146.688761 L1064.57461,135.90298 Z M1068.99612,123.42229 L1073.25388,119.471201 L1073.25388,147.976481 L1075.64826,148.643257 L1084,140.939128 L1083.24322,140.217292 L1082.0969,139.138714 L1075.86161,144.948906 L1075.86161,115.921681 L1074.06081,115 L1067.01914,121.625551 L1067.84981,122.343712 L1068.99612,123.42229 Z" id="排序"></path>
        </g>
    </g>
</svg>