<?xml version="1.0" encoding="UTF-8"?>
<svg width="38px" height="40px" viewBox="0 0 38 40" version="1.1" xmlns="http://www.w3.org/2000/svg" xmlns:xlink="http://www.w3.org/1999/xlink">
    <!-- Generator: Sketch 51.3 (57544) - http://www.bohemiancoding.com/sketch -->
    <title>头部搜索</title>
    <desc>Created with Sketch.</desc>
    <defs></defs>
    <g id="Page-1" stroke="none" stroke-width="1" fill="none" fill-rule="evenodd">
        <g id="切图" transform="translate(-517.000000, -158.000000)" fill="#FFFFFF" fill-rule="nonzero">
            <path d="M554.328364,194.120081 L548.722827,188.560973 C551.779968,185.311879 553.66742,180.966433 553.66742,176.181857 C553.66742,166.155478 545.443828,158 535.33371,158 C525.224498,158 517,166.155478 517,176.181857 C517,179.786408 518.066105,183.275498 520.084643,186.269134 C520.506319,186.897319 521.359752,187.061862 521.991348,186.645499 C522.622943,186.227314 522.792531,185.38095 522.370855,184.754586 C520.656655,182.210036 519.750055,179.246416 519.750055,176.181842 C519.750055,167.659996 526.740699,160.727293 535.333679,160.727293 C543.926698,160.727293 550.917303,167.660035 550.917303,176.181842 C550.917303,184.703688 543.926659,191.636391 535.333679,191.636391 C532.232536,191.636391 529.236806,190.732753 526.668263,189.024572 C526.038499,188.607298 525.184152,188.771844 524.759726,189.397299 C524.337136,190.022753 524.505804,190.870028 525.135567,191.290028 C528.158795,193.300941 531.685293,194.363668 535.33368,194.363668 C538.963751,194.363668 542.341733,193.298214 545.191709,191.486392 L551.087818,197.333664 C551.53516,197.777301 552.121836,198.000028 552.707599,198.000028 C553.294275,198.000028 553.880956,197.777301 554.328298,197.333664 C555.223901,196.44639 555.223901,195.008208 554.328298,194.120024 L554.328364,194.120081 Z M525.834158,173.495956 C526.856261,169.565053 530.141676,166.698682 534.204394,166.194111 C534.957909,166.100475 535.492336,165.418657 535.397918,164.671383 C535.303499,163.924108 534.610484,163.393198 533.862472,163.487745 C528.673117,164.132292 524.477462,167.794117 523.172078,172.81592 C522.982324,173.54501 523.424166,174.288648 524.160264,174.475922 C524.274849,174.505922 524.390352,174.519558 524.504021,174.519558 C525.116367,174.519558 525.674628,174.111374 525.834129,173.49592 L525.834158,173.495956 Z" id="头部搜索"></path>
        </g>
    </g>
</svg>