<?xml version="1.0" encoding="UTF-8"?>
<svg width="28px" height="28px" viewBox="0 0 28 28" version="1.1" xmlns="http://www.w3.org/2000/svg" xmlns:xlink="http://www.w3.org/1999/xlink">
    <!-- Generator: Sketch 51.3 (57544) - http://www.bohemiancoding.com/sketch -->
    <title>搜索框搜索</title>
    <desc>Created with Sketch.</desc>
    <defs></defs>
    <g id="Page-1" stroke="none" stroke-width="1" fill="none" fill-rule="evenodd">
        <g id="切图" transform="translate(-525.000000, -209.000000)" fill="#9B9B9B" fill-rule="nonzero">
            <path d="M552.732304,235.321386 L547.971587,230.231952 C549.903778,227.909792 550.961116,225.013786 550.961116,221.967627 C550.961116,214.818799 545.137719,209 537.977875,209 C530.823397,209 525,214.818799 525,221.967627 C525,229.116455 530.823397,234.935253 537.977875,234.935253 C539.851025,234.935253 541.659781,234.543759 543.350433,233.771491 C543.854949,233.540883 544.075004,232.950957 543.844215,232.452202 C543.613426,231.948085 543.023033,231.728203 542.523884,231.95881 C541.090842,232.607728 539.561192,232.940232 537.977868,232.940232 C531.923669,232.940232 526.996583,228.017036 526.996583,221.967617 C526.996583,215.918199 531.923669,210.995003 537.977868,210.995003 C544.032067,210.995003 548.959154,215.918199 548.959154,221.967617 C548.959154,224.815348 547.869612,227.512928 545.899854,229.566928 C545.518783,229.963785 545.529517,230.596615 545.92669,230.977385 C545.958893,231.0042 545.996463,231.014926 546.028667,231.041741 C546.055503,231.079281 546.071604,231.127548 546.103808,231.165089 L551.267063,236.683587 C551.460282,236.892742 551.728641,237 551.997001,237 C552.243892,237 552.485416,236.90883 552.678635,236.731852 C553.086542,236.356445 553.10801,235.723615 552.732307,235.321395 L552.732304,235.321386 Z" id="搜索框搜索"></path>
        </g>
    </g>
</svg>