<?xml version="1.0" encoding="UTF-8"?>
<svg width="30px" height="34px" viewBox="0 0 30 34" version="1.1" xmlns="http://www.w3.org/2000/svg" xmlns:xlink="http://www.w3.org/1999/xlink">
    <!-- Generator: Sketch 51.3 (57544) - http://www.bohemiancoding.com/sketch -->
    <title>筛选高亮</title>
    <desc>Created with Sketch.</desc>
    <defs></defs>
    <g id="Page-1" stroke="none" stroke-width="1" fill="none" fill-rule="evenodd">
        <g id="切图" transform="translate(-911.000000, -115.000000)" fill="#9013FE" fill-rule="nonzero">
            <path d="M925.974902,149 C923.897721,149 921.93594,146.935714 921.93594,144.75 L921.93594,131.878571 L921.93594,131.757143 L911.665437,119.128571 C911.088443,118.4 910.857645,117.55 911.088443,116.7 C911.434639,115.607143 912.242432,115 913.281022,115 L938.437984,115 C939.245776,115 940.168967,115.364286 940.630563,116.214286 C941.207558,117.185714 941.092159,118.278571 940.399765,119.007143 L930.013863,131.878571 L930.013863,144.871429 C930.013863,146.935714 928.052082,149 925.974902,149 Z M937.399394,117.428571 L914.55041,117.428571 C914.088814,117.428571 913.742617,118.035714 914.088814,118.4 L923.897721,130.542857 C924.128519,130.785714 924.243918,131.15 924.243918,131.392857 L924.243918,144.75 C924.243918,145.6 925.167109,146.571429 925.974902,146.571429 C926.782694,146.571429 927.705885,145.6 927.705885,144.75 L927.705885,131.392857 C927.705885,131.028571 927.821284,130.785714 928.052082,130.542857 L937.860989,118.4 C938.207186,118.035714 937.860989,117.428571 937.399394,117.428571 Z" id="筛选高亮"></path>
        </g>
    </g>
</svg>