<?xml version="1.0" encoding="UTF-8"?>
<svg width="34px" height="34px" viewBox="0 0 34 34" version="1.1" xmlns="http://www.w3.org/2000/svg" xmlns:xlink="http://www.w3.org/1999/xlink">
    <!-- Generator: Sketch 51.3 (57544) - http://www.bohemiancoding.com/sketch -->
    <title>排序高亮</title>
    <desc>Created with Sketch.</desc>
    <defs></defs>
    <g id="Page-1" stroke="none" stroke-width="1" fill="none" fill-rule="evenodd">
        <g id="切图" transform="translate(-1050.000000, -185.000000)" fill="#9013FE" fill-rule="nonzero">
            <path d="M1055.07655,196.041694 L1061.13566,196.041694 L1062.6095,200.201924 L1066.21221,200.201924 L1059.98934,185.409995 L1059.98934,185.255913 L1056.22287,185.255913 L1050,200.201924 L1053.43895,200.201924 L1055.07655,196.041694 Z M1055.89535,193.730455 L1056.55039,192.035547 C1057.20543,190.494721 1057.69671,189.107977 1058.02423,187.721234 L1058.18798,188.029399 C1058.67926,189.26206 1059.17054,190.648803 1059.66182,191.881464 L1060.31686,193.576372 L1055.89535,193.576372 L1055.89535,193.730455 Z M1064.57461,205.90298 L1064.57461,204.053989 L1052.12888,204.053989 L1052.12888,206.51931 L1060.31686,206.51931 L1051.31008,217.305091 L1051.31008,219 L1064.57461,219 L1064.57461,216.688761 L1055.56783,216.688761 L1064.57461,205.90298 Z M1068.99612,193.42229 L1073.25388,189.471201 L1073.25388,217.976481 L1075.64826,218.643257 L1084,210.939128 L1083.24322,210.217292 L1082.0969,209.138714 L1075.86161,214.948906 L1075.86161,185.921681 L1074.06081,185 L1067.01914,191.625551 L1067.84981,192.343712 L1068.99612,193.42229 Z" id="排序高亮"></path>
        </g>
    </g>
</svg>