<?xml version="1.0" encoding="UTF-8"?>
<svg width="190px" height="170px" viewBox="0 0 190 170" version="1.1" xmlns="http://www.w3.org/2000/svg" xmlns:xlink="http://www.w3.org/1999/xlink">
    <!-- Generator: Sketch 51.3 (57544) - http://www.bohemiancoding.com/sketch -->
    <title>密码修改成功</title>
    <desc>Created with Sketch.</desc>
    <defs></defs>
    <g id="Page-1" stroke="none" stroke-width="1" fill="none" fill-rule="evenodd">
        <g id="切图" transform="translate(-1136.000000, -90.000000)" fill-rule="nonzero">
            <g id="密码修改成功" transform="translate(1136.000000, 90.000000)">
                <path d="M20.1058201,85 C20.1056761,115.367527 36.2964684,143.428341 62.5792487,158.612146 C88.8620289,173.795951 121.243791,173.795951 147.526571,158.612146 C173.809352,143.428341 190.000144,115.367527 190,85 C190.000144,54.6324729 173.809352,26.571659 147.526571,11.3878539 C121.243791,-3.79595129 88.8620289,-3.79595129 62.5792487,11.3878539 C36.2964684,26.571659 20.1056761,54.6324729 20.1058201,85 Z" id="Shape" fill="#9013FE" opacity="0.200000003"></path>
                <path d="M98.6598734,168.994083 C89.2399321,168.994083 79.9719254,167.421188 71.1597222,164.319089 C69.4667374,163.729253 68.5768351,161.850517 69.1628683,160.146548 C69.7489015,158.442578 71.6155258,157.546901 73.3085107,158.136737 C81.4478609,160.998532 89.9778999,162.440353 98.6815784,162.440353 C106.929453,162.440353 115.047099,161.129607 122.817465,158.551807 C124.532155,157.983817 126.355369,158.923185 126.919697,160.627154 C127.484026,162.35297 126.550713,164.188014 124.857729,164.756004 C116.414509,167.574108 107.602306,168.994083 98.6598734,168.994083 Z M146.562663,152.893753 C145.564236,152.893753 144.587514,152.434992 143.95807,151.583007 C142.872824,150.141187 143.176693,148.087685 144.609218,146.995396 C163.731265,132.577191 174.974421,110.512967 175.45193,86.4826246 C175.842618,65.7946842 168.224187,46.1990321 153.98575,31.3002196 C139.725608,16.4014072 120.560152,7.96894154 100.027284,7.57571775 C79.4727119,7.1606482 60.0033862,14.8503578 45.2006213,29.1811803 C30.3978564,43.5120029 22.0197519,62.8018142 21.6073581,83.4897547 C21.1298496,108.153624 31.9606116,131.004296 51.3431176,146.165257 C52.7539383,147.279391 53.0143975,149.332893 51.9074458,150.752868 C50.8004942,152.172843 48.7602304,152.434992 47.3494097,151.320858 C37.3217303,143.456382 29.0738554,133.25441 23.4956874,121.785382 C17.6570602,109.748365 14.8354188,96.8375177 15.095878,83.3586801 C15.3129273,72.0207275 17.722175,61.0759987 22.2802111,50.8084887 C26.6646077,40.8905109 32.8722188,32.0211299 40.6642901,24.4624949 C48.4780663,16.9038598 57.5073188,11.0273488 67.5349982,6.98588207 C77.9099566,2.81334076 88.8709483,0.803530291 100.135809,1.02198795 C111.40067,1.24044561 122.274842,3.66532564 132.47616,8.2529365 C142.3302,12.6657812 151.142404,18.9136703 158.652311,26.7563003 C166.162218,34.5989303 172.000845,43.7086147 176.016258,53.8013586 C180.1619,64.2436348 182.158754,75.2757466 181.941705,86.6136992 C181.681246,99.7866961 178.512325,112.326166 172.478354,123.904422 C166.748251,134.958379 158.456966,144.745283 148.516107,152.23838 C147.930073,152.697141 147.25722,152.893753 146.562663,152.893753 Z" id="Shape" fill="#FFFFFF"></path>
                <path d="M81.6715988,120.710059 C80.8399237,120.710059 80.0082485,120.40782 79.3735491,119.781754 L49.2362688,90.6157057 C47.9449837,89.3635733 47.9230975,87.3126669 49.1924964,86.038946 C50.4618953,84.7652252 52.5410831,84.7436367 53.8323681,85.995769 L81.6497126,112.916615 L145.185315,50.2452315 C146.4766,48.9715106 148.555788,48.9715106 149.825187,50.2452315 C151.116472,51.5189523 151.116472,53.5698587 149.825187,54.8219911 L83.9915347,119.760166 C83.3568352,120.386232 82.5251601,120.710059 81.6715988,120.710059 Z" id="Shape" fill="#FFFFFF"></path>
                <path d="M83.5805084,168.994083 C74.1605671,168.994083 64.8925603,167.421188 56.0803571,164.319089 C54.3873723,163.729253 53.49747,161.850517 54.0835032,160.146548 C54.6695364,158.442578 56.5361607,157.546901 58.2291456,158.136737 C66.3684958,160.998532 74.8985348,162.440353 83.6022133,162.440353 C91.8500882,162.440353 99.9677334,161.129607 107.7381,158.551807 C109.45279,157.983817 111.276004,158.923185 111.840332,160.627154 C112.404661,162.35297 111.471348,164.188014 109.778364,164.756004 C101.335144,167.574108 92.5446461,168.994083 83.5805084,168.994083 Z M131.505002,152.893753 C130.506575,152.893753 129.529853,152.434992 128.90041,151.583007 C127.815164,150.141187 128.119033,148.087685 129.551558,146.995396 C148.673605,132.577191 159.916761,110.512967 160.394269,86.4826246 C161.219057,43.7959978 127.381065,8.3840111 84.9696241,7.55387199 C64.4150517,7.13880244 44.945726,14.8285121 30.1429611,29.1593346 C15.3401962,43.4901571 6.96209174,62.7799685 6.54969799,83.4679089 C6.07218945,108.153624 16.9029515,131.004296 36.2637525,146.165257 C37.6745732,147.279391 37.9350324,149.332893 36.8280808,150.752868 C35.7211291,152.172843 33.6808654,152.434992 32.2700447,151.320858 C22.2423652,143.456382 13.9944903,133.25441 8.41632231,121.785382 C2.57769509,109.748365 -0.243946313,96.8375177 0.0165128932,83.3586801 C0.233562233,72.0207275 2.64280989,61.0759987 7.20084601,50.8084887 C11.5852427,40.8905109 17.7928537,32.0211299 25.584925,24.4624949 C33.3769963,16.9038598 42.4279537,11.0273488 52.4556332,6.98588207 C62.8305916,2.81334076 73.7915832,0.803530291 85.0564439,1.02198795 C96.3213046,1.24044561 107.195476,3.66532564 117.396795,8.2529365 C127.250835,12.6657812 136.063039,18.9136703 143.572946,26.7563003 C151.082853,34.5989303 156.92148,43.7086147 160.936893,53.8013586 C165.082535,64.2436348 167.079389,75.2757466 166.86234,86.6136992 C166.60188,99.7866961 163.43296,112.326166 157.398989,123.904422 C151.647181,134.936534 143.355896,144.745283 133.415037,152.23838 C132.872413,152.697141 132.177855,152.893753 131.505002,152.893753 Z" id="Shape" fill="#333333"></path>
                <path d="M66.5922337,120.710059 C65.7605586,120.710059 64.9288834,120.40782 64.294184,119.781754 L34.1569037,90.6157057 C32.8656186,89.3635733 32.8437324,87.3126669 34.1131313,86.038946 C35.3825302,84.7652252 37.461718,84.7436367 38.7530031,85.995769 L66.5703475,112.916615 L130.10595,50.2452315 C131.397235,48.9715106 133.476423,48.9715106 134.745822,50.2452315 C136.037107,51.5189523 136.037107,53.5698587 134.745822,54.8219911 L68.9121696,119.760166 C68.2774702,120.386232 67.4239088,120.710059 66.5922337,120.710059 Z" id="Shape" fill="#333333"></path>
            </g>
        </g>
    </g>
</svg>