<?xml version="1.0" encoding="UTF-8"?>
<svg width="30px" height="21px" viewBox="0 0 30 21" version="1.1" xmlns="http://www.w3.org/2000/svg" xmlns:xlink="http://www.w3.org/1999/xlink">
    <!-- Generator: Sketch 51.3 (57544) - http://www.bohemiancoding.com/sketch -->
    <title>预览次数</title>
    <desc>Created with Sketch.</desc>
    <defs></defs>
    <g id="Page-1" stroke="none" stroke-width="1" fill="none" fill-rule="evenodd">
        <g id="切图" transform="translate(-690.000000, -42.000000)" fill="#BBBBBB" fill-rule="nonzero">
            <path d="M705,63 C695.392354,63 690,52.5 690,52.5 C690,52.5 695.496311,42 705,42 C714.503689,42 720,52.5 720,52.5 C720,52.5 714.607646,63 705,63 Z M705,44.4230769 C697.16046,44.4230769 692.625,52.5 692.625,52.5 C692.625,52.5 697.076329,60.5769231 705,60.5769231 C712.923671,60.5769231 717.375,52.5 717.375,52.5 C717.375,52.5 712.83954,44.4230769 705,44.4230769 Z M705,54.9230769 C703.343058,54.9230769 702,53.4767064 702,51.6923077 C702,49.907909 703.343058,48.4615385 705,48.4615385 C706.656942,48.4615385 708,49.907909 708,51.6923077 C708,53.4767064 706.656942,54.9230769 705,54.9230769 Z" id="预览次数"></path>
        </g>
    </g>
</svg>