<?xml version="1.0" encoding="UTF-8"?>
<svg width="42px" height="28px" viewBox="0 0 42 28" version="1.1" xmlns="http://www.w3.org/2000/svg" xmlns:xlink="http://www.w3.org/1999/xlink">
    <!-- Generator: Sketch 51.3 (57544) - http://www.bohemiancoding.com/sketch -->
    <title>中文</title>
    <desc>Created with Sketch.</desc>
    <defs>
        <polygon id="path-1" points="0.00205378973 0.0273170732 41.9927775 0.0273170732 41.9927775 27.9999659 0.00205378973 27.9999659"></polygon>
    </defs>
    <g id="Page-1" stroke="none" stroke-width="1" fill="none" fill-rule="evenodd">
        <g id="切图" transform="translate(-149.000000, -380.000000)">
            <g id="中文" transform="translate(149.000000, 380.000000)">
                <g id="Group-3">
                    <mask id="mask-2" fill="white">
                        <use xlink:href="#path-1"></use>
                    </mask>
                    <g id="Clip-2"></g>
                    <path d="M0.172210269,27.8281756 L41.8204303,27.8281756 L41.8204303,0.199107317 L0.172210269,0.199107317 L0.172210269,27.8281756 Z M41.9237702,27.9312634 L41.9237702,27.8281756 L41.9237702,27.9312634 Z M0,27.9999659 L41.9927775,27.9999659 L41.9927775,0.0273170732 L0,0.0273170732 L0,27.9999659 Z" id="Fill-1" fill="#353636" mask="url(#mask-2)"></path>
                </g>
                <polygon id="Fill-4" fill="#D64B24" points="0 28 42 28 42 0 0 0"></polygon>
                <path d="M7.81180225,3.42378362 L8.72937587,6.10168921 L11.6588499,6.10168921 L9.29421461,7.72875019 L10.1764376,10.4068242 L7.81180225,8.74570962 L5.44706171,10.4068242 L6.36477561,7.72875019 L4,6.10168921 L6.929439,6.10168921 L7.81180225,3.42378362 Z M15.4353015,2 L15.399986,2.94918908 L16.2823492,3.28810819 L15.329425,3.52547283 L15.2942146,4.44070937 L14.7647265,3.66101352 L13.8471529,3.86442562 L14.4470617,3.15260118 L13.9529243,2.37287165 L14.8352875,2.74577698 L15.4353015,2 Z M18.7176508,5.01699311 L18.2942146,5.83054044 L18.9647896,6.47459454 L18.0118654,6.33891911 L17.5882889,7.15260118 L17.4470617,6.2372299 L16.4941375,6.10168921 L17.3411501,5.69486502 L17.2000631,4.77962848 L17.8706382,5.42371625 L18.7176508,5.01699311 Z M17.7293759,8.74570962 L18.0470757,9.62712835 L19,9.62712835 L18.2235133,10.1694596 L18.5058625,11.0508783 L17.7293759,10.5085134 L16.9529243,11.0508783 L17.2705891,10.1694596 L16.4941375,9.62712835 L17.4470617,9.62712835 L17.7293759,8.74570962 Z M15.4353015,11.5932432 L15.3647756,12.508446 L16.2823492,12.8473988 L15.329425,13.0847635 L15.258864,14 L14.7647265,13.2202705 L13.8118023,13.4576351 L14.4470617,12.7456759 L13.9177139,11.9661148 L14.8352875,12.3050339 L15.4353015,11.5932432 Z" id="Fill-5" fill="#FBDC00"></path>
            </g>
        </g>
    </g>
</svg>