<?xml version="1.0" encoding="UTF-8"?>
<svg width="28px" height="19px" viewBox="0 0 28 19" version="1.1" xmlns="http://www.w3.org/2000/svg" xmlns:xlink="http://www.w3.org/1999/xlink">
    <!-- Generator: Sketch 51.3 (57544) - http://www.bohemiancoding.com/sketch -->
    <title>密码可见</title>
    <desc>Created with Sketch.</desc>
    <defs></defs>
    <g id="Page-1" stroke="none" stroke-width="1" fill="none" fill-rule="evenodd">
        <g id="切图" transform="translate(-162.000000, -144.000000)">
            <g id="密码可见" transform="translate(161.000000, 143.000000)">
                <rect id="Rectangle-Copy" x="0" y="0" width="30" height="20"></rect>
                <path d="M15,1.25 C9.97437499,1.25 6.055625,4.82611548 1.25,10.625 C5.38875,15.5790682 8.860625,20 15,20 C21.1325,20 25.6425,14.406168 28.75,10.7316273 C25.57375,6.42552495 21.06375,1.25 15,1.25 Z M15.0134277,16.7672414 C11.7618179,16.7672414 9.11481585,14.1540618 9.11481585,10.9482759 C9.11481585,7.73535008 11.7618179,5.12931034 15.0134277,5.12931034 C18.2650375,5.12931034 20.9120396,7.74248995 20.9120396,10.9482759 C20.9120396,14.1612016 18.2650375,16.7672414 15.0134277,16.7672414 Z M15.0134277,8.61742973 C15.0134277,8.0387931 15.2323626,7.51720516 15.5860268,7.10971458 C15.4007741,7.07711534 15.2071009,7.06896551 15.0134277,7.06896551 C12.8493403,7.06896551 11.0810198,8.80487537 11.0810198,10.9482759 C11.0810198,13.0916763 12.8493403,14.8275862 15.0134277,14.8275862 C17.1775152,14.8275862 18.9458357,13.0916763 18.9458357,10.9482759 C18.9458357,10.7771298 18.9289945,10.6141336 18.9121533,10.4429875 C18.4995452,10.7526804 17.9858902,10.9482759 17.4217118,10.9482759 C16.0912611,10.9482759 15.0134277,9.90509994 15.0134277,8.61742973 Z" id="Shape" fill="#BBBBBB" fill-rule="nonzero"></path>
            </g>
        </g>
    </g>
</svg>