<?xml version="1.0" encoding="UTF-8"?>
<svg width="30px" height="16px" viewBox="0 0 30 16" version="1.1" xmlns="http://www.w3.org/2000/svg" xmlns:xlink="http://www.w3.org/1999/xlink">
    <!-- Generator: Sketch 51.3 (57544) - http://www.bohemiancoding.com/sketch -->
    <title>密码不可见</title>
    <desc>Created with Sketch.</desc>
    <defs></defs>
    <g id="Page-1" stroke="none" stroke-width="1" fill="none" fill-rule="evenodd">
        <g id="切图" transform="translate(-161.000000, -252.000000)">
            <g id="密码不可见" transform="translate(161.000000, 250.000000)">
                <rect id="Rectangle" x="0" y="0" width="30" height="20"></rect>
                <path d="M29.8301409,2.8113053 C29.03867,4.24904424 28.1134803,5.53932277 27.090712,6.68214091 L29.8265269,10.8847624 L28.5796892,12.0562534 L25.8836285,7.91507373 C24.7199133,9.00054615 23.4550054,9.91807755 22.1069751,10.6226106 L23.8055656,15.4273621 L22.3491146,16.1687602 L20.6288399,11.2984708 C19.1290206,11.9006008 17.5569209,12.2692518 15.9414528,12.3716548 L15.9414528,17.5 L14.358511,17.5 L14.358511,12.3880393 C12.6996747,12.3143091 11.0805927,11.9620426 9.54101915,11.3640087 L8.04481388,16.29574 L6.55583665,15.6444566 L8.05204192,10.704533 C6.7256957,10.0286729 5.47885797,9.15210268 4.3223708,8.10759148 L1.63715215,12.2364828 L0.39031442,11.0649918 L3.10444525,6.89513927 C2.00216841,5.69907155 1.00831225,4.33915893 0.169859053,2.8113053 L0,2.5 L2.06360679,2.5 C5.09215757,7.44401966 9.86989519,10.368651 15.001807,10.368651 C20.1337188,10.368651 24.9042284,7.44811578 27.9363932,2.5 L30,2.5 L29.8301409,2.8113053 Z" id="Shape" fill="#BBBBBB" fill-rule="nonzero"></path>
            </g>
        </g>
    </g>
</svg>