<?xml version="1.0" encoding="UTF-8"?>
<svg width="42px" height="28px" viewBox="0 0 42 28" version="1.1" xmlns="http://www.w3.org/2000/svg" xmlns:xlink="http://www.w3.org/1999/xlink">
    <!-- Generator: Sketch 51.3 (57544) - http://www.bohemiancoding.com/sketch -->
    <title>英语</title>
    <desc>Created with Sketch.</desc>
    <defs></defs>
    <g id="Page-1" stroke="none" stroke-width="1" fill="none" fill-rule="evenodd">
        <g id="切图" transform="translate(-149.000000, -313.000000)">
            <g id="英语" transform="translate(149.000000, 313.000000)">
                <path d="M0.172285728,27.8282414 L41.8277486,27.8282414 L41.8277486,0.206117124 L0.172285728,0.206117124 L0.172285728,27.8282414 Z M41.8966629,27.8975866 L41.8966629,27.7938829 L41.8966629,27.8975866 Z M0,28 L0,0 L42,0 L42,27.9656414 L0,27.9656414 L0,28 Z" id="Fill-1" fill="#353636"></path>
                <polygon id="Fill-2" fill="#00458F" points="0 28 42 28 42 0 0 0"></polygon>
                <polygon id="Fill-3" fill="#FFFFFF" points="42 9.79479937 25.2069048 9.79479937 25.2069048 0 16.7930607 0 16.7930607 9.79479937 0 9.79479937 0 18.2052006 16.7930607 18.2052006 16.7930607 28 25.2069048 28 25.2069048 18.2052006 42 18.2052006"></polygon>
                <polygon id="Fill-4" fill="#FFFFFF" points="42 24.781264 4.81292178 0 0 0 0 3.25334936 37.1524507 28 42 28"></polygon>
                <polygon id="Fill-5" fill="#FFFFFF" points="0 24.781264 37.1870782 0 42 0 42 3.25334936 4.84751486 28 0 28"></polygon>
                <polygon id="Fill-6" fill="#CC3440" points="42 11.5599104 23.4410712 11.5599104 23.4410712 0 18.5588943 0 18.5588943 11.5599104 0 11.5599104 0 16.4400896 18.5588943 16.4400896 18.5588943 28 23.4410712 28 23.4410712 16.4400896 42 16.4400896"></polygon>
                <path d="M42,27.9308077 L42,25.7157569 L30.7121711,18.2052006 L27.3882348,18.2052006 L42,27.9308077 Z M42,0 L38.6759258,0 L25.2069048,8.96414671 L25.2069048,9.79479937 L27.2843866,9.79479937 L42,0 Z M14.6117307,18.2052006 L0,27.9308077 L0,28 L3.185426,28 L16.7930607,18.9666265 L16.7930607,18.2052006 L14.6117307,18.2052006 Z M0,0 L0,2.21505077 L11.3569116,9.79479937 L14.7156134,9.79479937 L0,0 Z" id="Fill-7" fill="#CC3440"></path>
            </g>
        </g>
    </g>
</svg>