<?xml version="1.0" encoding="UTF-8"?>
<svg width="40px" height="40px" viewBox="0 0 40 40" version="1.1" xmlns="http://www.w3.org/2000/svg" xmlns:xlink="http://www.w3.org/1999/xlink">
    <!-- Generator: Sketch 51.3 (57544) - http://www.bohemiancoding.com/sketch -->
    <title>默认头像</title>
    <desc>Created with Sketch.</desc>
    <defs>
        <circle id="path-1" cx="20" cy="20" r="20"></circle>
        <circle id="path-3" cx="19" cy="19" r="19"></circle>
    </defs>
    <g id="Page-1" stroke="none" stroke-width="1" fill="none" fill-rule="evenodd">
        <g id="切图" transform="translate(-680.000000, -158.000000)">
            <g id="默认头像" transform="translate(680.000000, 158.000000)">
                <mask id="mask-2" fill="white">
                    <use xlink:href="#path-1"></use>
                </mask>
                <circle stroke="#EBEBEB" cx="20" cy="20" r="19.5"></circle>
                <g id="头像" mask="url(#mask-2)">
                    <g transform="translate(1.000000, 1.000000)">
                        <mask id="mask-4" fill="white">
                            <use xlink:href="#path-3"></use>
                        </mask>
                        <use id="Mask" stroke="none" fill="#FFFFFF" fill-rule="evenodd" xlink:href="#path-3"></use>
                        <path d="M11.5914634,15.2599862 C11.5914634,11.1355528 14.9145459,7.7804878 19,7.7804878 C23.0853211,7.7804878 26.4085366,11.1355528 26.4085366,15.2599862 C26.4085366,19.3846545 23.0853211,22.7393168 19,22.7393168 C14.9145459,22.7393168 11.5914634,19.3846545 11.5914634,15.2599862 Z M5.82926829,33.5265772 C5.98406944,31.8547958 6.81880811,25.9313478 13.2345849,22.7589253 C14.8257742,23.959854 16.8248938,24.6829181 19.0000161,24.6829181 C21.1870786,24.6829181 23.1969119,23.9524697 24.7924254,22.7393168 C31.2359225,25.898398 32.0138007,31.7803952 32.1707317,33.5264531 C32.1574927,33.5387727 31.5098712,39.9737666 27.3760034,39.9737835 C23.257136,39.9738004 15.159114,39.9778841 11.285186,39.9737835 C7.83562865,39.9701322 5.84098445,33.5274363 5.82926829,33.5265772 Z" id="头像" stroke="none" fill="#818181" fill-rule="evenodd" mask="url(#mask-4)"></path>
                    </g>
                </g>
            </g>
        </g>
    </g>
</svg>